<svg width="256" height="42" viewBox="0 0 256 42" fill="none" xmlns="http://www.w3.org/2000/svg">
<path d="M198.144 25.5399H193.694C193.353 25.5399 193.032 25.3995 192.772 25.159C192.531 24.9184 192.391 24.5977 192.371 24.2569V23.2345C192.371 22.8937 192.511 22.5729 192.772 22.3323C193.012 22.0918 193.333 21.9515 193.694 21.9515H197.503C197.844 21.9515 198.184 21.8111 198.425 21.5706C198.666 21.33 198.806 21.0092 198.806 20.6684C198.806 20.3276 198.666 20.0069 198.425 19.7663C198.184 19.5258 197.844 19.3854 197.503 19.3854H193.674C193.333 19.3854 193.012 19.2451 192.752 19.0045C192.511 18.764 192.371 18.4432 192.351 18.1024V17.08C192.351 16.7392 192.491 16.4185 192.752 16.1779C192.992 15.9373 193.313 15.797 193.674 15.797H198.024C198.365 15.797 198.706 15.6567 198.946 15.4161C199.187 15.1756 199.327 14.8548 199.327 14.514C199.327 14.1732 199.187 13.8525 198.946 13.6119C198.706 13.3713 198.365 13.231 198.024 13.231H192.792C192.591 13.231 192.391 13.2912 192.231 13.4114C192.07 13.5317 191.97 13.7121 191.93 13.9126L189.143 26.883V27.1436C189.183 27.4443 189.344 27.725 189.604 27.9054C189.845 28.1059 190.146 28.1861 190.466 28.166H198.144C198.485 28.166 198.826 28.0257 199.067 27.7851C199.307 27.5446 199.447 27.2238 199.447 26.883C199.447 26.5422 199.307 26.2215 199.067 25.9809C198.826 25.7403 198.485 25.6 198.144 25.6V25.5399Z" fill="#6B847F"/>
<path d="M101.398 13.2711H99.6536C99.393 13.2711 99.1524 13.3513 98.9319 13.4916C98.7114 13.632 98.551 13.8124 98.4307 14.0529L94.6017 23.1543C94.6017 23.1743 94.6017 23.1944 94.5817 23.2144C94.5616 23.2345 94.5416 23.2345 94.5215 23.2345C94.4414 23.2345 94.4413 23.2345 94.4413 23.1543L90.6124 14.0529C90.5121 13.8124 90.3718 13.6119 90.1713 13.4515C89.8305 13.1909 89.3895 13.5317 89.3093 13.9727L86.4025 27.0835C86.3825 27.2238 86.4025 27.3842 86.4827 27.5045C86.5829 27.7049 86.7433 27.8854 86.9438 28.0056C87.1442 28.1259 87.3848 28.1861 87.6053 28.1861H88.1265C88.4673 28.166 88.7881 28.0257 89.0287 27.7851C89.2692 27.5446 89.4096 27.2238 89.4096 26.903V18.4833C89.4096 18.4633 89.4096 18.4432 89.4296 18.4232C89.4496 18.4031 89.4697 18.4031 89.4897 18.4031C89.5098 18.4031 89.5298 18.4031 89.5499 18.4232C89.5699 18.4432 89.5699 18.4633 89.5699 18.4833L93.1383 27.324C93.2385 27.5646 93.3989 27.7651 93.6194 27.9054C93.8399 28.0457 94.1005 28.1059 94.3612 28.1059H94.702C94.9626 28.1059 95.2031 28.0257 95.4237 27.8854C95.6442 27.745 95.8046 27.5646 95.9248 27.324L99.4932 18.5635C99.4932 18.5435 99.4932 18.5234 99.5132 18.5034C99.5333 18.4833 99.5533 18.4833 99.5734 18.4833C99.5934 18.4833 99.6135 18.4833 99.6335 18.5034C99.6536 18.5234 99.6536 18.5435 99.6536 18.5635V26.903C99.6536 27.2438 99.7939 27.5646 100.055 27.8052C100.295 28.0457 100.616 28.1861 100.977 28.1861H101.498C101.839 28.1861 102.159 28.0457 102.42 27.8052C102.661 27.5646 102.801 27.2438 102.821 26.903V14.5341C102.761 14.1933 102.58 13.8725 102.32 13.652C102.079 13.4315 101.738 13.2911 101.398 13.2711Z" fill="#6B847F"/>
<path d="M141.311 20.2274H137.482C137.161 20.2274 136.841 20.3477 136.62 20.5882C136.4 20.8088 136.259 21.1295 136.259 21.4302C136.259 21.751 136.38 22.0517 136.62 22.2722C136.841 22.4927 137.161 22.633 137.482 22.633H138.184C138.886 22.633 139.587 23.2345 139.226 23.916C138.705 25.0387 137.663 25.6401 135.999 25.6401C133.553 25.6401 132.07 23.8359 132.07 20.7486C132.07 17.6614 133.633 15.8572 135.999 15.8572C136.54 15.8371 137.081 15.9373 137.582 16.1779C138.064 16.4185 138.485 16.7793 138.785 17.2204C138.926 17.4609 139.126 17.6814 139.367 17.8418C139.607 18.0022 139.888 18.0824 140.189 18.0824H140.97C141.151 18.1024 141.331 18.0623 141.492 18.0022C141.652 17.942 141.792 17.8218 141.913 17.7015C142.033 17.5612 142.093 17.4008 142.133 17.2404C142.173 17.06 142.153 16.8996 142.113 16.7192C141.572 15.5965 140.71 14.6543 139.607 14.0128C138.525 13.3713 137.262 13.0506 135.999 13.1107C131.989 13.1107 128.942 15.9374 128.942 20.7486C128.942 25.5599 131.809 28.3865 136.079 28.3865C139.908 28.3865 142.614 25.9809 142.614 22.1118V21.5104C142.614 21.35 142.594 21.1696 142.514 21.0092C142.454 20.8489 142.354 20.7085 142.233 20.5882C142.113 20.468 141.973 20.3677 141.812 20.3076C141.652 20.2475 141.492 20.2274 141.311 20.2274Z" fill="#6B847F"/>
<path d="M118.658 14.1331C118.578 13.8926 118.398 13.672 118.177 13.5117C117.956 13.3513 117.696 13.2711 117.435 13.2711H115.17C114.909 13.2711 114.649 13.3513 114.428 13.5117C114.208 13.672 114.047 13.8725 113.947 14.1331L109.597 26.4821C109.537 26.6825 109.517 26.883 109.537 27.0835C109.557 27.2839 109.637 27.4844 109.757 27.6448C109.878 27.8052 110.038 27.9455 110.218 28.0457C110.399 28.146 110.599 28.1861 110.8 28.2061H111.501C111.762 28.2061 112.023 28.1259 112.243 27.9655C112.464 27.8052 112.624 27.6047 112.724 27.3441L113.245 25.7203C113.326 25.4797 113.506 25.2592 113.727 25.0988C113.947 24.9384 114.208 24.8583 114.468 24.8583H118.037C118.297 24.8583 118.558 24.9384 118.778 25.0988C118.999 25.2592 119.159 25.4597 119.26 25.7203L119.781 27.3441C119.861 27.5847 120.041 27.8052 120.262 27.9655C120.482 28.1259 120.743 28.2061 121.004 28.2061H121.705C121.906 28.2061 122.106 28.146 122.287 28.0457C122.467 27.9455 122.627 27.8052 122.748 27.6448C122.868 27.4844 122.948 27.2839 122.968 27.0835C122.988 26.883 122.988 26.6825 122.908 26.4821L118.658 14.1331ZM116.433 22.2922H116.172C115.972 22.2922 115.771 22.2321 115.571 22.1319C115.39 22.0316 115.23 21.8913 115.11 21.7309C114.99 21.5706 114.909 21.3701 114.889 21.1696C114.869 20.9691 114.869 20.7687 114.949 20.5682L116.252 16.6189C116.252 16.5989 116.252 16.5789 116.273 16.5588C116.293 16.5388 116.313 16.5388 116.333 16.5388C116.353 16.5388 116.373 16.5388 116.393 16.5588C116.413 16.5789 116.413 16.5989 116.413 16.6189L117.716 20.5682C117.756 20.7687 117.756 20.9691 117.716 21.1696C117.676 21.3701 117.596 21.5505 117.455 21.7309C117.335 21.8913 117.175 22.0316 116.994 22.1319C116.854 22.2121 116.653 22.2722 116.433 22.2922Z" fill="#6B847F"/>
<path d="M151.415 13.2711H150.813C150.473 13.2711 150.152 13.4114 149.891 13.652C149.651 13.8926 149.51 14.2133 149.49 14.5541V26.9231C149.49 27.2639 149.631 27.5847 149.891 27.8252C150.132 28.0658 150.453 28.2061 150.813 28.2061H151.415C151.756 28.2061 152.076 28.0658 152.337 27.8252C152.578 27.5847 152.718 27.2639 152.738 26.9231V14.5541C152.718 14.2133 152.578 13.9126 152.337 13.672C152.076 13.4315 151.756 13.2911 151.415 13.2711Z" fill="#6B847F"/>
<path d="M166.671 15.8371C167.252 15.8171 167.833 15.9574 168.355 16.218C168.876 16.4987 169.317 16.8796 169.638 17.3807C169.758 17.6814 169.958 17.9421 170.219 18.1225C170.48 18.3029 170.8 18.4031 171.121 18.4031H171.722C171.903 18.4232 172.083 18.3831 172.244 18.3229C172.404 18.2628 172.544 18.1425 172.665 18.0222C172.785 17.8819 172.845 17.7215 172.885 17.5612C172.925 17.3807 172.905 17.2204 172.865 17.0399C172.003 14.4539 169.638 13.0105 166.59 13.0105C162.581 13.0105 159.534 15.7569 159.534 20.6484C159.534 25.5399 162.501 28.2863 166.59 28.2863C169.818 28.2863 172.003 26.5623 172.785 24.4172C172.845 24.2569 172.845 24.0764 172.805 23.896C172.765 23.7156 172.685 23.5552 172.585 23.4349C172.464 23.2946 172.324 23.1944 172.163 23.1342C172.003 23.0741 171.823 23.034 171.642 23.054H170.941C170.62 23.0741 170.319 23.1944 170.059 23.3748C169.798 23.5552 169.597 23.7958 169.457 24.0965C169.176 24.5976 168.735 24.9986 168.234 25.2592C167.733 25.5399 167.152 25.6601 166.57 25.6401C164.305 25.6401 162.741 23.9161 162.741 20.7486C162.761 17.5612 164.325 15.8371 166.671 15.8371Z" fill="#6B847F"/>
<path d="M211.816 13.2711H207.727C207.386 13.2711 207.065 13.4114 206.805 13.652C206.564 13.8926 206.424 14.2133 206.404 14.5541V26.9231C206.404 27.2639 206.544 27.5847 206.805 27.8252C207.045 28.0658 207.366 28.2061 207.727 28.2061H211.816C216.427 28.2061 219.234 25.3795 219.234 20.7286C219.234 16.0977 216.347 13.2711 211.816 13.2711ZM211.636 25.4597H210.934C210.594 25.4597 210.273 25.3193 210.012 25.0788C209.772 24.8382 209.631 24.5175 209.611 24.1767V17.2204C209.611 16.8796 209.752 16.5588 210.012 16.3182C210.253 16.0777 210.574 15.9374 210.934 15.9374H211.636C214.503 15.9374 215.986 17.4008 215.986 20.6684C216.006 23.9161 214.523 25.4597 211.636 25.4597Z" fill="#6B847F"/>
<path d="M234.911 25.5399H230.46C230.119 25.5399 229.799 25.3995 229.538 25.159C229.297 24.9184 229.157 24.5977 229.137 24.2569V23.2345C229.137 22.8937 229.277 22.5729 229.538 22.3323C229.779 22.0918 230.099 21.9515 230.46 21.9515H234.289C234.63 21.9515 234.971 21.8111 235.211 21.5706C235.452 21.33 235.592 21.0092 235.592 20.6684C235.592 20.3276 235.452 20.0069 235.211 19.7663C234.971 19.5258 234.63 19.3854 234.289 19.3854H230.46C230.119 19.3854 229.799 19.2451 229.538 19.0045C229.297 18.764 229.157 18.4432 229.137 18.1024V17.08C229.137 16.7392 229.277 16.4185 229.538 16.1779C229.779 15.9373 230.099 15.797 230.46 15.797H234.81C235.151 15.797 235.492 15.6567 235.732 15.4161C235.973 15.1756 236.113 14.8548 236.113 14.514C236.113 14.1732 235.973 13.8525 235.732 13.6119C235.492 13.3713 235.151 13.231 234.81 13.231H227.233C226.892 13.231 226.571 13.3713 226.31 13.6119C226.07 13.8525 225.93 14.1732 225.909 14.514V26.883C225.909 27.2238 226.05 27.5446 226.31 27.7851C226.551 28.0257 226.872 28.166 227.233 28.166H234.911C235.251 28.166 235.572 28.0257 235.833 27.7851C236.073 27.5446 236.214 27.2238 236.234 26.883C236.234 26.7226 236.214 26.5422 236.133 26.3818C236.073 26.2215 235.973 26.0811 235.853 25.9609C235.732 25.8406 235.592 25.7403 235.432 25.6802C235.251 25.58 235.091 25.5399 234.911 25.5399Z" fill="#6B847F"/>
<path d="M254.617 13.2711H254.015C253.675 13.2711 253.354 13.4114 253.093 13.652C252.853 13.8926 252.712 14.2133 252.692 14.5541V22.5328C252.692 22.613 252.692 22.613 252.612 22.613H252.532L246.438 13.8525C246.317 13.6921 246.157 13.5518 245.977 13.4716C245.796 13.3914 245.596 13.3312 245.395 13.3513H244.573C244.232 13.3513 243.912 13.4916 243.651 13.7322C243.41 13.9728 243.27 14.2935 243.25 14.6343V27.0033C243.25 27.3441 243.39 27.6648 243.651 27.9054C243.892 28.146 244.212 28.2863 244.573 28.2863H245.175C245.515 28.2863 245.836 28.146 246.097 27.9054C246.337 27.6648 246.478 27.3441 246.498 27.0033V18.9244C246.498 18.9043 246.498 18.8843 246.518 18.8642C246.538 18.8442 246.558 18.8442 246.578 18.8442H246.658L252.853 27.6047C252.973 27.7651 253.133 27.9054 253.314 27.9856C253.494 28.0658 253.695 28.1259 253.895 28.1059H254.677C255.018 28.1059 255.338 27.9655 255.599 27.725C255.84 27.4844 255.98 27.1637 256 26.8229V14.4539C255.94 14.1331 255.779 13.8324 255.539 13.632C255.258 13.4114 254.938 13.2911 254.617 13.2711Z" fill="#6B847F"/>
<path d="M48.7743 10.5447L52.8038 15.2959C53.2648 15.8371 53.6658 16.2581 53.8462 16.5187C55.049 17.7215 55.7306 19.3453 55.7306 21.0293C55.6103 23.0139 54.3273 24.3771 53.1245 25.8406L50.2979 29.1483L48.8345 30.8724C48.7743 30.9325 48.7543 31.0127 48.7342 31.0929C48.7142 31.1731 48.7342 31.2532 48.7743 31.3134C48.8144 31.3936 48.8545 31.4537 48.9347 31.4938C48.9948 31.5339 49.075 31.554 49.1552 31.554H63.8697C66.115 31.554 68.9416 33.4384 68.7812 36.3051C68.7812 37.6081 68.2399 38.8511 67.3178 39.7732C66.3756 40.6954 65.1126 41.2166 63.7895 41.2166H40.7355C39.2119 41.2166 35.1424 41.377 33.9997 37.9089C33.7591 37.1872 33.719 36.4053 33.8995 35.6636C34.2403 34.561 34.7615 33.5186 35.4431 32.5964C36.6058 30.8724 37.8487 29.1684 39.0916 27.5045C40.6954 25.3193 42.3192 23.2144 43.943 20.9892C44.0031 20.909 44.0232 20.8288 44.0232 20.7286C44.0232 20.6283 43.9831 20.5482 43.943 20.468L38.0893 13.5919C38.0492 13.5518 38.0091 13.5117 37.9489 13.4716C37.8888 13.4515 37.8287 13.4315 37.7685 13.4315C37.7084 13.4315 37.6482 13.4515 37.5881 13.4716C37.528 13.4916 37.4879 13.5317 37.4478 13.5919C35.8841 15.6767 29.008 24.9184 27.5446 26.8028C26.0811 28.6672 22.4727 28.7875 20.468 26.8028L11.3065 17.7416C11.2464 17.6814 11.1662 17.6413 11.086 17.6213C11.0058 17.6013 10.9256 17.6213 10.8454 17.6414C10.7652 17.6814 10.7051 17.7215 10.665 17.8017C10.6249 17.8619 10.5848 17.9421 10.6049 18.0222V35.4431C10.6249 36.686 10.2641 37.8888 9.54237 38.9112C8.82067 39.9336 7.81833 40.6954 6.63555 41.1164C5.87377 41.377 5.07189 41.4572 4.29006 41.3369C3.50822 41.2166 2.74644 40.9359 2.10493 40.4749C1.44338 40.0138 0.922162 39.4124 0.561316 38.7107C0.20047 38.0091 0 37.2273 0 36.4454V5.11199C0.060141 3.98936 0.461083 2.90681 1.18277 2.0047C1.90447 1.12263 2.86672 0.481128 3.9693 0.180423C4.91151 -0.060141 5.91386 -0.060141 6.85607 0.180423C7.79828 0.441034 8.6603 0.922164 9.36194 1.62381L23.455 15.5164C23.4951 15.5565 23.5552 15.5966 23.5953 15.6166C23.6554 15.6366 23.7156 15.6367 23.7757 15.6367C23.8359 15.6367 23.896 15.6166 23.9361 15.5765C23.9962 15.5565 24.0363 15.5164 24.0764 15.4562L34.0799 1.80423C34.541 1.24291 35.1223 0.801881 35.7839 0.501176C36.4454 0.200471 37.1671 0.0200494 37.8888 0.0200494H63.9098C64.6315 0.0200494 65.3331 0.180428 65.9746 0.461086C66.6161 0.76179 67.1975 1.18277 67.6786 1.70399C68.1397 2.22522 68.5005 2.84667 68.701 3.52827C68.9015 4.20987 68.9616 4.91152 68.8614 5.61316C68.681 6.81598 68.0595 7.91856 67.1173 8.70039C66.1751 9.48222 64.9723 9.92326 63.7294 9.90321H49.1552C49.075 9.90321 49.0149 9.92326 48.9547 9.96335C48.8946 10.0034 48.8345 10.0636 48.8144 10.1237C48.7743 10.1839 48.7743 10.2641 48.7743 10.3242C48.7142 10.4044 48.7342 10.4846 48.7743 10.5447Z" fill="#6B847F"/>
</svg>
