<svg width="171" height="43" viewBox="0 0 171 43" fill="none" xmlns="http://www.w3.org/2000/svg">
<path d="M16.1575 0H13.4646V2.6875H16.1575V0Z" fill="#A3E050"/>
<path d="M18.8504 0H16.1575V2.6875H18.8504V0Z" fill="#A3E050"/>
<path d="M21.5433 0H18.8504V2.6875H21.5433V0Z" fill="#457F2C"/>
<path d="M32.315 0H29.622V2.6875H32.315V0Z" fill="#A3E050"/>
<path d="M35.0079 0H32.315V2.6875H35.0079V0Z" fill="#A3E050"/>
<path d="M37.7008 0H35.0079V2.6875H37.7008V0Z" fill="#457F2C"/>
<path d="M13.4646 5.375V2.6875H10.7717V5.375H13.4646Z" fill="#457F2C"/>
<path d="M16.1575 2.6875H13.4646V5.375H16.1575V2.6875Z" fill="#D5F86B"/>
<path d="M18.8504 2.6875H16.1575V5.375H18.8504V2.6875Z" fill="#D5F86B"/>
<path d="M21.5433 2.6875H18.8504V5.375H21.5433V2.6875Z" fill="#A3E050"/>
<path d="M24.2362 5.375V2.6875H21.5433V5.375H24.2362Z" fill="#457F2C"/>
<path d="M29.622 5.375V2.6875H26.9291V5.375H29.622Z" fill="#457F2C"/>
<path d="M32.315 2.6875H29.622V5.375H32.315V2.6875Z" fill="#D5F86B"/>
<path d="M35.0079 2.6875H32.315V5.375H35.0079V2.6875Z" fill="#D5F86B"/>
<path d="M37.7008 2.6875H35.0079V5.375H37.7008V2.6875Z" fill="#A3E050"/>
<path d="M40.3937 5.375V2.6875H37.7008V5.375H40.3937Z" fill="#457F2C"/>
<path d="M13.4646 8.0625V5.375H10.7717V8.0625H13.4646Z" fill="#457F2C"/>
<path d="M16.1575 5.375H13.4646V8.0625H16.1575V5.375Z" fill="white"/>
<path d="M18.8504 5.375H16.1575V8.0625H18.8504V5.375Z" fill="white"/>
<path d="M21.5433 5.375H18.8504V8.0625H21.5433V5.375Z" fill="#A3E050"/>
<path d="M24.2362 8.0625V5.375H21.5433V8.0625H24.2362Z" fill="#457F2C"/>
<path d="M29.622 8.0625V5.375H26.9291V8.0625H29.622Z" fill="#457F2C"/>
<path d="M32.315 5.375H29.622V8.0625H32.315V5.375Z" fill="white"/>
<path d="M35.0079 5.375H32.315V8.0625H35.0079V5.375Z" fill="white"/>
<path d="M37.7008 5.375H35.0079V8.0625H37.7008V5.375Z" fill="#5C7053"/>
<path d="M40.3937 8.0625V5.375H37.7008V8.0625H40.3937Z" fill="#457F2C"/>
<path d="M13.4646 10.75V8.0625H10.7717V10.75H13.4646Z" fill="#457F2C"/>
<path d="M16.1575 8.0625H13.4646V10.75H16.1575V8.0625Z" fill="black"/>
<path d="M18.8504 8.0625H16.1575V10.75H18.8504V8.0625Z" fill="white"/>
<path d="M21.5433 8.0625H18.8504V10.75H21.5433V8.0625Z" fill="#A3E050"/>
<path d="M24.2362 10.75V8.0625H21.5433V10.75H24.2362Z" fill="#457F2C"/>
<path d="M26.9291 8.0625H24.2362V10.75H26.9291V8.0625Z" fill="#457F2C"/>
<path d="M29.622 10.75V8.0625H26.9291V10.75H29.622Z" fill="#457F2C"/>
<path d="M32.315 8.0625H29.622V10.75H32.315V8.0625Z" fill="black"/>
<path d="M35.0079 8.0625H32.315V10.75H35.0079V8.0625Z" fill="white"/>
<path d="M37.7008 8.0625H35.0079V10.75H37.7008V8.0625Z" fill="#5C7053"/>
<path d="M40.3937 10.75V8.0625H37.7008V10.75H40.3937Z" fill="#457F2C"/>
<path d="M5.38583 10.75H2.69291V13.4375H5.38583V10.75Z" fill="#457F2C"/>
<path d="M8.07874 10.75H5.38583V13.4375H8.07874V10.75Z" fill="#457F2C"/>
<path d="M13.4646 13.4375V10.75H10.7717V13.4375H13.4646Z" fill="#457F2C"/>
<path d="M16.1575 10.75H13.4646V13.4375H16.1575V10.75Z" fill="black"/>
<path d="M18.8504 10.75H16.1575V13.4375H18.8504V10.75Z" fill="white"/>
<path d="M21.5433 10.75H18.8504V13.4375H21.5433V10.75Z" fill="#A3E050"/>
<path d="M24.2362 10.75H21.5433V13.4375H24.2362L24.2362 10.75Z" fill="#A3E050"/>
<path d="M26.9291 10.75H24.2362L24.2362 13.4375H26.9291V10.75Z" fill="#A3E050"/>
<path d="M29.622 10.75H26.9291V13.4375H29.622V10.75Z" fill="#5C7053"/>
<path d="M32.315 10.75H29.622V13.4375H32.315V10.75Z" fill="black"/>
<path d="M35.0079 10.75H32.315V13.4375H35.0079V10.75Z" fill="white"/>
<path d="M37.7008 10.75H35.0079V13.4375H37.7008V10.75Z" fill="#5C7053"/>
<path d="M40.3937 13.4375V10.75H37.7008V13.4375H40.3937Z" fill="#457F2C"/>
<path d="M2.69291 16.125V13.4375H0V16.125H2.69291Z" fill="#457F2C"/>
<path d="M5.38583 13.4375H2.69291V16.125H5.38583V13.4375Z" fill="#D5F86B"/>
<path d="M8.07874 13.4375H5.38583V16.125H8.07874V13.4375Z" fill="#D5F86B"/>
<path d="M10.7717 13.4375H8.07874V16.125H10.7717L10.7717 13.4375Z" fill="#457F2C"/>
<path d="M13.4646 13.4375H10.7717L10.7717 16.125H13.4646L13.4646 13.4375Z" fill="#5C7053"/>
<path d="M16.1575 13.4375H13.4646L13.4646 16.125H16.1575V13.4375Z" fill="#A3E050"/>
<path d="M18.8504 13.4375H16.1575V16.125H18.8504V13.4375Z" fill="#A3E050"/>
<path d="M21.5433 13.4375H18.8504V16.125H21.5433V13.4375Z" fill="#A3E050"/>
<path d="M24.2362 13.4375H21.5433V16.125H24.2362V13.4375Z" fill="#A3E050"/>
<path d="M26.9291 13.4375H24.2362V16.125H26.9291V13.4375Z" fill="#A3E050"/>
<path d="M29.622 13.4375H26.9291V16.125H29.622V13.4375Z" fill="#A3E050"/>
<path d="M32.315 13.4375H29.622V16.125H32.315V13.4375Z" fill="#A3E050"/>
<path d="M35.0079 13.4375H32.315V16.125H35.0079V13.4375Z" fill="#A3E050"/>
<path d="M37.7008 13.4375H35.0079V16.125H37.7008V13.4375Z" fill="#A3E050"/>
<path d="M40.3937 13.4375H37.7008V16.125H40.3937V13.4375Z" fill="#A3E050"/>
<path d="M43.0866 16.125V13.4375H40.3937V16.125H43.0866Z" fill="#457F2C"/>
<path d="M2.69291 18.8125V16.125H0V18.8125H2.69291Z" fill="#457F2C"/>
<path d="M5.38583 16.125H2.69291V18.8125H5.38583V16.125Z" fill="#A3E050"/>
<path d="M8.07874 16.125H5.38583V18.8125H8.07874V16.125Z" fill="#D5F86B"/>
<path d="M10.7717 16.125H8.07874V18.8125H10.7717V16.125Z" fill="#D5F86B"/>
<path d="M13.4646 16.125H10.7717V18.8125H13.4646V16.125Z" fill="#D5F86B"/>
<path d="M16.1575 16.125H13.4646V18.8125H16.1575V16.125Z" fill="#A3E050"/>
<path d="M18.8504 16.125H16.1575V18.8125H18.8504V16.125Z" fill="#A3E050"/>
<path d="M21.5433 16.125H18.8504V18.8125H21.5433V16.125Z" fill="#A3E050"/>
<path d="M24.2362 16.125H21.5433V18.8125H24.2362V16.125Z" fill="#A3E050"/>
<path d="M26.9291 16.125H24.2362V18.8125H26.9291V16.125Z" fill="#A3E050"/>
<path d="M29.622 16.125H26.9291V18.8125H29.622V16.125Z" fill="#A3E050"/>
<path d="M32.315 16.125H29.622V18.8125H32.315V16.125Z" fill="#A3E050"/>
<path d="M35.0079 16.125H32.315V18.8125H35.0079V16.125Z" fill="#A3E050"/>
<path d="M37.7008 16.125H35.0079V18.8125H37.7008V16.125Z" fill="#A3E050"/>
<path d="M40.3937 16.125H37.7008V18.8125H40.3937V16.125Z" fill="#5C7053"/>
<path d="M43.0866 18.8125V16.125H40.3937V18.8125H43.0866Z" fill="#457F2C"/>
<path d="M2.69291 21.5V18.8125H0V21.5H2.69291Z" fill="#457F2C"/>
<path d="M5.38583 18.8125H2.69291V21.5H5.38583V18.8125Z" fill="#A3E050"/>
<path d="M8.07874 18.8125H5.38583V21.5H8.07874V18.8125Z" fill="#A3E050"/>
<path d="M10.7717 18.8125H8.07874V21.5H10.7717V18.8125Z" fill="#A3E050"/>
<path d="M13.4646 18.8125H10.7717V21.5H13.4646V18.8125Z" fill="#A3E050"/>
<path d="M16.1575 18.8125H13.4646V21.5H16.1575V18.8125Z" fill="#A3E050"/>
<path d="M18.8504 18.8125H16.1575V21.5H18.8504V18.8125Z" fill="#A3E050"/>
<path d="M21.5433 18.8125H18.8504V21.5H21.5433V18.8125Z" fill="#A3E050"/>
<path d="M24.2362 18.8125H21.5433V21.5H24.2362V18.8125Z" fill="#A3E050"/>
<path d="M26.9291 18.8125H24.2362V21.5H26.9291V18.8125Z" fill="#A3E050"/>
<path d="M29.622 18.8125H26.9291V21.5H29.622V18.8125Z" fill="#A3E050"/>
<path d="M32.315 18.8125H29.622V21.5H32.315V18.8125Z" fill="#A3E050"/>
<path d="M35.0079 18.8125H32.315V21.5H35.0079V18.8125Z" fill="#A3E050"/>
<path d="M37.7008 18.8125H35.0079V21.5H37.7008V18.8125Z" fill="#A3E050"/>
<path d="M40.3937 18.8125H37.7008V21.5H40.3937V18.8125Z" fill="#5C7053"/>
<path d="M43.0866 21.5V18.8125H40.3937V21.5H43.0866Z" fill="#457F2C"/>
<path d="M2.69291 24.1875V21.5H0V24.1875H2.69291Z" fill="#457F2C"/>
<path d="M5.38583 21.5H2.69291V24.1875H5.38583V21.5Z" fill="#5C7053"/>
<path d="M8.07874 21.5H5.38583V24.1875H8.07874V21.5Z" fill="#5C7053"/>
<path d="M10.7717 21.5H8.07874V24.1875H10.7717V21.5Z" fill="black"/>
<path d="M13.4646 21.5H10.7717V24.1875H13.4646V21.5Z" fill="black"/>
<path d="M16.1575 21.5H13.4646V24.1875H16.1575V21.5Z" fill="black"/>
<path d="M18.8504 21.5H16.1575V24.1875H18.8504V21.5Z" fill="#A3E050"/>
<path d="M21.5433 21.5H18.8504V24.1875H21.5433V21.5Z" fill="#A3E050"/>
<path d="M24.2362 21.5H21.5433V24.1875H24.2362V21.5Z" fill="#A3E050"/>
<path d="M26.9291 21.5H24.2362V24.1875H26.9291V21.5Z" fill="#A3E050"/>
<path d="M29.622 21.5H26.9291V24.1875H29.622V21.5Z" fill="#A3E050"/>
<path d="M32.315 21.5H29.622V24.1875H32.315V21.5Z" fill="#A3E050"/>
<path d="M35.0079 21.5H32.315V24.1875H35.0079V21.5Z" fill="#A3E050"/>
<path d="M37.7008 21.5H35.0079V24.1875H37.7008V21.5Z" fill="#5C7053"/>
<path d="M40.3937 21.5H37.7008V24.1875H40.3937V21.5Z" fill="#5C7053"/>
<path d="M43.0866 24.1875V21.5H40.3937V24.1875H43.0866Z" fill="#457F2C"/>
<path d="M5.38583 24.1875H2.69291V26.875H5.38583V24.1875Z" fill="#457F2C"/>
<path d="M8.07874 24.1875H5.38583V26.875H8.07874V24.1875Z" fill="#457F2C"/>
<path d="M10.7717 24.1875H8.07874V26.875H10.7717V24.1875Z" fill="#457F2C"/>
<path d="M13.4646 24.1875H10.7717V26.875H13.4646V24.1875Z" fill="#5C7053"/>
<path d="M16.1575 24.1875H13.4646V26.875H16.1575V24.1875Z" fill="#5C7053"/>
<path d="M18.8504 24.1875H16.1575V26.875H18.8504V24.1875Z" fill="#5C7053"/>
<path d="M21.5433 24.1875H18.8504V26.875H21.5433V24.1875Z" fill="#A3E050"/>
<path d="M24.2362 24.1875H21.5433V26.875H24.2362V24.1875Z" fill="#A3E050"/>
<path d="M26.9291 24.1875H24.2362V26.875H26.9291V24.1875Z" fill="#A3E050"/>
<path d="M29.622 24.1875H26.9291V26.875H29.622V24.1875Z" fill="#A3E050"/>
<path d="M32.315 24.1875H29.622V26.875H32.315V24.1875Z" fill="#A3E050"/>
<path d="M35.0079 24.1875H32.315V26.875H35.0079V24.1875Z" fill="#5C7053"/>
<path d="M37.7008 24.1875H35.0079V26.875H37.7008V24.1875Z" fill="#5C7053"/>
<path d="M40.3937 26.875V24.1875H37.7008V26.875H40.3937Z" fill="#457F2C"/>
<path d="M13.4646 26.875H10.7717V29.5625H13.4646V26.875Z" fill="#457F2C"/>
<path d="M16.1575 26.875H13.4646V29.5625H16.1575V26.875Z" fill="#457F2C"/>
<path d="M18.8504 26.875H16.1575V29.5625H18.8504V26.875Z" fill="#5C7053"/>
<path d="M21.5433 26.875H18.8504V29.5625H21.5433V26.875Z" fill="#5C7053"/>
<path d="M24.2362 26.875H21.5433V29.5625H24.2362V26.875Z" fill="#A3E050"/>
<path d="M26.9291 26.875H24.2362V29.5625H26.9291V26.875Z" fill="#A3E050"/>
<path d="M29.622 26.875H26.9291V29.5625H29.622V26.875Z" fill="#5C7053"/>
<path d="M32.315 26.875H29.622V29.5625H32.315V26.875Z" fill="#5C7053"/>
<path d="M35.0079 29.5625V26.875H32.315V29.5625H35.0079Z" fill="#5C7053"/>
<path d="M37.7008 29.5625V26.875H35.0079V29.5625H37.7008Z" fill="#457F2C"/>
<path d="M18.8504 29.5625H16.1575V32.25H18.8504V29.5625Z" fill="#457F2C"/>
<path d="M21.5433 29.5625H18.8504V32.25H21.5433V29.5625Z" fill="#5C7053"/>
<path d="M24.2362 29.5625H21.5433V32.25H24.2362V29.5625Z" fill="#DFC855"/>
<path d="M26.9291 29.5625H24.2362V32.25H26.9291V29.5625Z" fill="#DFC855"/>
<path d="M29.622 29.5625H26.9291V32.25H29.622V29.5625Z" fill="#A3E050"/>
<path d="M32.315 29.5625H29.622V32.25H32.315V29.5625Z" fill="#5C7053"/>
<path d="M35.0079 32.25V29.5625H32.315V32.25H35.0079Z" fill="#457F2C"/>
<path d="M16.1575 32.25H13.4646V34.9375H16.1575V32.25Z" fill="#457F2C"/>
<path d="M18.8504 32.25H16.1575V34.9375H18.8504V32.25Z" fill="#5C7053"/>
<path d="M21.5433 32.25H18.8504V34.9375H21.5433V32.25Z" fill="#DFC855"/>
<path d="M24.2362 32.25H21.5433V34.9375H24.2362V32.25Z" fill="#DFC855"/>
<path d="M26.9291 32.25H24.2362V34.9375H26.9291V32.25Z" fill="#DFC855"/>
<path d="M29.622 32.25H26.9291V34.9375H29.622V32.25Z" fill="#DFC855"/>
<path d="M32.315 32.25H29.622V34.9375H32.315V32.25Z" fill="#A3E050"/>
<path d="M35.0079 32.25H32.315V34.9375H35.0079V32.25Z" fill="#5C7053"/>
<path d="M37.7008 32.25H35.0079V34.9375H37.7008V32.25Z" fill="#457F2C"/>
<path d="M16.1575 34.9375H13.4646V37.625H16.1575V34.9375Z" fill="#457F2C"/>
<path d="M18.8504 34.9375H16.1575V37.625H18.8504V34.9375Z" fill="#5C7053"/>
<path d="M21.5433 34.9375H18.8504V37.625H21.5433V34.9375Z" fill="#DFC855"/>
<path d="M24.2362 34.9375H21.5433V37.625H24.2362V34.9375Z" fill="#DFC855"/>
<path d="M26.9291 34.9375H24.2362V37.625H26.9291V34.9375Z" fill="#DFC855"/>
<path d="M29.622 34.9375H26.9291V37.625H29.622V34.9375Z" fill="#DFC855"/>
<path d="M32.315 34.9375H29.622V37.625H32.315V34.9375Z" fill="#A3E050"/>
<path d="M35.0079 34.9375H32.315V37.625H35.0079V34.9375Z" fill="#5C7053"/>
<path d="M37.7008 34.9375H35.0079V37.625H37.7008V34.9375Z" fill="#457F2C"/>
<path d="M13.4646 37.625H10.7717V40.3125H13.4646L13.4646 37.625Z" fill="#457F2C"/>
<path d="M16.1575 37.625H13.4646L13.4646 40.3125H16.1575V37.625Z" fill="#5C7053"/>
<path d="M18.8504 37.625H16.1575V40.3125H18.8504V37.625Z" fill="#A3E050"/>
<path d="M21.5433 37.625H18.8504V40.3125H21.5433V37.625Z" fill="#DFC855"/>
<path d="M24.2362 37.625H21.5433V40.3125H24.2362V37.625Z" fill="#DFC855"/>
<path d="M26.9291 37.625H24.2362V40.3125H26.9291V37.625Z" fill="#DFC855"/>
<path d="M29.622 37.625H26.9291V40.3125H29.622V37.625Z" fill="#DFC855"/>
<path d="M32.315 37.625H29.622V40.3125H32.315V37.625Z" fill="#A3E050"/>
<path d="M35.0079 37.625H32.315V40.3125H35.0079V37.625Z" fill="#A3E050"/>
<path d="M37.7008 37.625H35.0079V40.3125H37.7008V37.625Z" fill="#5C7053"/>
<path d="M40.3937 37.625H37.7008V40.3125H40.3937V37.625Z" fill="#457F2C"/>
<path d="M13.4646 40.3125H10.7717V43H13.4646V40.3125Z" fill="#457F2C"/>
<path d="M16.1575 40.3125H13.4646V43H16.1575V40.3125Z" fill="#5C7053"/>
<path d="M18.8504 40.3125H16.1575V43H18.8504V40.3125Z" fill="#A3E050"/>
<path d="M21.5433 40.3125H18.8504V43H21.5433V40.3125Z" fill="#DFC855"/>
<path d="M24.2362 40.3125H21.5433V43H24.2362V40.3125Z" fill="#DFC855"/>
<path d="M26.9291 40.3125H24.2362V43H26.9291V40.3125Z" fill="#DFC855"/>
<path d="M29.622 40.3125H26.9291V43H29.622V40.3125Z" fill="#DFC855"/>
<path d="M32.315 40.3125H29.622V43H32.315V40.3125Z" fill="#A3E050"/>
<path d="M35.0079 40.3125H32.315V43H35.0079V40.3125Z" fill="#A3E050"/>
<path d="M37.7008 40.3125H35.0079V43H37.7008V40.3125Z" fill="#5C7053"/>
<path d="M40.3937 40.3125H37.7008V43H40.3937V40.3125Z" fill="#457F2C"/>
<mask id="mask0_23_155" style="mask-type:alpha" maskUnits="userSpaceOnUse" x="0" y="0" width="44" height="43">
<path d="M16.1575 0H13.4646V2.6875H16.1575V0Z" fill="#A3E050"/>
<path d="M18.8504 0H16.1575V2.6875H18.8504V0Z" fill="#A3E050"/>
<path d="M21.5433 0H18.8504V2.6875H21.5433V0Z" fill="#457F2C"/>
<path d="M32.315 0H29.622V2.6875H32.315V0Z" fill="#A3E050"/>
<path d="M35.0079 0H32.315V2.6875H35.0079V0Z" fill="#A3E050"/>
<path d="M37.7008 0H35.0079V2.6875H37.7008V0Z" fill="#457F2C"/>
<path d="M13.4646 5.375V2.6875H10.7717V5.375H13.4646Z" fill="#457F2C"/>
<path d="M16.1575 2.6875H13.4646V5.375H16.1575V2.6875Z" fill="#D5F86B"/>
<path d="M18.8504 2.6875H16.1575V5.375H18.8504V2.6875Z" fill="#D5F86B"/>
<path d="M21.5433 2.6875H18.8504V5.375H21.5433V2.6875Z" fill="#A3E050"/>
<path d="M24.2362 5.375V2.6875H21.5433V5.375H24.2362Z" fill="#457F2C"/>
<path d="M29.622 5.375V2.6875H26.9291V5.375H29.622Z" fill="#457F2C"/>
<path d="M32.315 2.6875H29.622V5.375H32.315V2.6875Z" fill="#D5F86B"/>
<path d="M35.0079 2.6875H32.315V5.375H35.0079V2.6875Z" fill="#D5F86B"/>
<path d="M37.7008 2.6875H35.0079V5.375H37.7008V2.6875Z" fill="#A3E050"/>
<path d="M40.3937 5.375V2.6875H37.7008V5.375H40.3937Z" fill="#457F2C"/>
<path d="M13.4646 8.0625V5.375H10.7717V8.0625H13.4646Z" fill="#457F2C"/>
<path d="M16.1575 5.375H13.4646V8.0625H16.1575V5.375Z" fill="white"/>
<path d="M18.8504 5.375H16.1575V8.0625H18.8504V5.375Z" fill="white"/>
<path d="M21.5433 5.375H18.8504V8.0625H21.5433V5.375Z" fill="#A3E050"/>
<path d="M24.2362 8.0625V5.375H21.5433V8.0625H24.2362Z" fill="#457F2C"/>
<path d="M29.622 8.0625V5.375H26.9291V8.0625H29.622Z" fill="#457F2C"/>
<path d="M32.315 5.375H29.622V8.0625H32.315V5.375Z" fill="white"/>
<path d="M35.0079 5.375H32.315V8.0625H35.0079V5.375Z" fill="white"/>
<path d="M37.7008 5.375H35.0079V8.0625H37.7008V5.375Z" fill="#5C7053"/>
<path d="M40.3937 8.0625V5.375H37.7008V8.0625H40.3937Z" fill="#457F2C"/>
<path d="M13.4646 10.75V8.0625H10.7717V10.75H13.4646Z" fill="#457F2C"/>
<path d="M16.1575 8.0625H13.4646V10.75H16.1575V8.0625Z" fill="black"/>
<path d="M18.8504 8.0625H16.1575V10.75H18.8504V8.0625Z" fill="white"/>
<path d="M21.5433 8.0625H18.8504V10.75H21.5433V8.0625Z" fill="#A3E050"/>
<path d="M24.2362 10.75V8.0625H21.5433V10.75H24.2362Z" fill="#457F2C"/>
<path d="M26.9291 8.0625H24.2362V10.75H26.9291V8.0625Z" fill="#457F2C"/>
<path d="M29.622 10.75V8.0625H26.9291V10.75H29.622Z" fill="#457F2C"/>
<path d="M32.315 8.0625H29.622V10.75H32.315V8.0625Z" fill="black"/>
<path d="M35.0079 8.0625H32.315V10.75H35.0079V8.0625Z" fill="white"/>
<path d="M37.7008 8.0625H35.0079V10.75H37.7008V8.0625Z" fill="#5C7053"/>
<path d="M40.3937 10.75V8.0625H37.7008V10.75H40.3937Z" fill="#457F2C"/>
<path d="M5.38583 10.75H2.69291V13.4375H5.38583V10.75Z" fill="#457F2C"/>
<path d="M8.07874 10.75H5.38583V13.4375H8.07874V10.75Z" fill="#457F2C"/>
<path d="M13.4646 13.4375V10.75H10.7717V13.4375H13.4646Z" fill="#457F2C"/>
<path d="M16.1575 10.75H13.4646V13.4375H16.1575V10.75Z" fill="black"/>
<path d="M18.8504 10.75H16.1575V13.4375H18.8504V10.75Z" fill="white"/>
<path d="M21.5433 10.75H18.8504V13.4375H21.5433V10.75Z" fill="#A3E050"/>
<path d="M24.2362 10.75H21.5433V13.4375H24.2362L24.2362 10.75Z" fill="#A3E050"/>
<path d="M26.9291 10.75H24.2362L24.2362 13.4375H26.9291V10.75Z" fill="#A3E050"/>
<path d="M29.622 10.75H26.9291V13.4375H29.622V10.75Z" fill="#5C7053"/>
<path d="M32.315 10.75H29.622V13.4375H32.315V10.75Z" fill="black"/>
<path d="M35.0079 10.75H32.315V13.4375H35.0079V10.75Z" fill="white"/>
<path d="M37.7008 10.75H35.0079V13.4375H37.7008V10.75Z" fill="#5C7053"/>
<path d="M40.3937 13.4375V10.75H37.7008V13.4375H40.3937Z" fill="#457F2C"/>
<path d="M2.69291 16.125V13.4375H0V16.125H2.69291Z" fill="#457F2C"/>
<path d="M5.38583 13.4375H2.69291V16.125H5.38583V13.4375Z" fill="#D5F86B"/>
<path d="M8.07874 13.4375H5.38583V16.125H8.07874V13.4375Z" fill="#D5F86B"/>
<path d="M10.7717 13.4375H8.07874V16.125H10.7717L10.7717 13.4375Z" fill="#457F2C"/>
<path d="M13.4646 13.4375H10.7717L10.7717 16.125H13.4646L13.4646 13.4375Z" fill="#5C7053"/>
<path d="M16.1575 13.4375H13.4646L13.4646 16.125H16.1575V13.4375Z" fill="#A3E050"/>
<path d="M18.8504 13.4375H16.1575V16.125H18.8504V13.4375Z" fill="#A3E050"/>
<path d="M21.5433 13.4375H18.8504V16.125H21.5433V13.4375Z" fill="#A3E050"/>
<path d="M24.2362 13.4375H21.5433V16.125H24.2362V13.4375Z" fill="#A3E050"/>
<path d="M26.9291 13.4375H24.2362V16.125H26.9291V13.4375Z" fill="#A3E050"/>
<path d="M29.622 13.4375H26.9291V16.125H29.622V13.4375Z" fill="#A3E050"/>
<path d="M32.315 13.4375H29.622V16.125H32.315V13.4375Z" fill="#A3E050"/>
<path d="M35.0079 13.4375H32.315V16.125H35.0079V13.4375Z" fill="#A3E050"/>
<path d="M37.7008 13.4375H35.0079V16.125H37.7008V13.4375Z" fill="#A3E050"/>
<path d="M40.3937 13.4375H37.7008V16.125H40.3937V13.4375Z" fill="#A3E050"/>
<path d="M43.0866 16.125V13.4375H40.3937V16.125H43.0866Z" fill="#457F2C"/>
<path d="M2.69291 18.8125V16.125H0V18.8125H2.69291Z" fill="#457F2C"/>
<path d="M5.38583 16.125H2.69291V18.8125H5.38583V16.125Z" fill="#A3E050"/>
<path d="M8.07874 16.125H5.38583V18.8125H8.07874V16.125Z" fill="#D5F86B"/>
<path d="M10.7717 16.125H8.07874V18.8125H10.7717V16.125Z" fill="#D5F86B"/>
<path d="M13.4646 16.125H10.7717V18.8125H13.4646V16.125Z" fill="#D5F86B"/>
<path d="M16.1575 16.125H13.4646V18.8125H16.1575V16.125Z" fill="#A3E050"/>
<path d="M18.8504 16.125H16.1575V18.8125H18.8504V16.125Z" fill="#A3E050"/>
<path d="M21.5433 16.125H18.8504V18.8125H21.5433V16.125Z" fill="#A3E050"/>
<path d="M24.2362 16.125H21.5433V18.8125H24.2362V16.125Z" fill="#A3E050"/>
<path d="M26.9291 16.125H24.2362V18.8125H26.9291V16.125Z" fill="#A3E050"/>
<path d="M29.622 16.125H26.9291V18.8125H29.622V16.125Z" fill="#A3E050"/>
<path d="M32.315 16.125H29.622V18.8125H32.315V16.125Z" fill="#A3E050"/>
<path d="M35.0079 16.125H32.315V18.8125H35.0079V16.125Z" fill="#A3E050"/>
<path d="M37.7008 16.125H35.0079V18.8125H37.7008V16.125Z" fill="#A3E050"/>
<path d="M40.3937 16.125H37.7008V18.8125H40.3937V16.125Z" fill="#5C7053"/>
<path d="M43.0866 18.8125V16.125H40.3937V18.8125H43.0866Z" fill="#457F2C"/>
<path d="M2.69291 21.5V18.8125H0V21.5H2.69291Z" fill="#457F2C"/>
<path d="M5.38583 18.8125H2.69291V21.5H5.38583V18.8125Z" fill="#A3E050"/>
<path d="M8.07874 18.8125H5.38583V21.5H8.07874V18.8125Z" fill="#A3E050"/>
<path d="M10.7717 18.8125H8.07874V21.5H10.7717V18.8125Z" fill="#A3E050"/>
<path d="M13.4646 18.8125H10.7717V21.5H13.4646V18.8125Z" fill="#A3E050"/>
<path d="M16.1575 18.8125H13.4646V21.5H16.1575V18.8125Z" fill="#A3E050"/>
<path d="M18.8504 18.8125H16.1575V21.5H18.8504V18.8125Z" fill="#A3E050"/>
<path d="M21.5433 18.8125H18.8504V21.5H21.5433V18.8125Z" fill="#A3E050"/>
<path d="M24.2362 18.8125H21.5433V21.5H24.2362V18.8125Z" fill="#A3E050"/>
<path d="M26.9291 18.8125H24.2362V21.5H26.9291V18.8125Z" fill="#A3E050"/>
<path d="M29.622 18.8125H26.9291V21.5H29.622V18.8125Z" fill="#A3E050"/>
<path d="M32.315 18.8125H29.622V21.5H32.315V18.8125Z" fill="#A3E050"/>
<path d="M35.0079 18.8125H32.315V21.5H35.0079V18.8125Z" fill="#A3E050"/>
<path d="M37.7008 18.8125H35.0079V21.5H37.7008V18.8125Z" fill="#A3E050"/>
<path d="M40.3937 18.8125H37.7008V21.5H40.3937V18.8125Z" fill="#5C7053"/>
<path d="M43.0866 21.5V18.8125H40.3937V21.5H43.0866Z" fill="#457F2C"/>
<path d="M2.69291 24.1875V21.5H0V24.1875H2.69291Z" fill="#457F2C"/>
<path d="M5.38583 21.5H2.69291V24.1875H5.38583V21.5Z" fill="#5C7053"/>
<path d="M8.07874 21.5H5.38583V24.1875H8.07874V21.5Z" fill="#5C7053"/>
<path d="M10.7717 21.5H8.07874V24.1875H10.7717V21.5Z" fill="black"/>
<path d="M13.4646 21.5H10.7717V24.1875H13.4646V21.5Z" fill="black"/>
<path d="M16.1575 21.5H13.4646V24.1875H16.1575V21.5Z" fill="black"/>
<path d="M18.8504 21.5H16.1575V24.1875H18.8504V21.5Z" fill="#A3E050"/>
<path d="M21.5433 21.5H18.8504V24.1875H21.5433V21.5Z" fill="#A3E050"/>
<path d="M24.2362 21.5H21.5433V24.1875H24.2362V21.5Z" fill="#A3E050"/>
<path d="M26.9291 21.5H24.2362V24.1875H26.9291V21.5Z" fill="#A3E050"/>
<path d="M29.622 21.5H26.9291V24.1875H29.622V21.5Z" fill="#A3E050"/>
<path d="M32.315 21.5H29.622V24.1875H32.315V21.5Z" fill="#A3E050"/>
<path d="M35.0079 21.5H32.315V24.1875H35.0079V21.5Z" fill="#A3E050"/>
<path d="M37.7008 21.5H35.0079V24.1875H37.7008V21.5Z" fill="#5C7053"/>
<path d="M40.3937 21.5H37.7008V24.1875H40.3937V21.5Z" fill="#5C7053"/>
<path d="M43.0866 24.1875V21.5H40.3937V24.1875H43.0866Z" fill="#457F2C"/>
<path d="M5.38583 24.1875H2.69291V26.875H5.38583V24.1875Z" fill="#457F2C"/>
<path d="M8.07874 24.1875H5.38583V26.875H8.07874V24.1875Z" fill="#457F2C"/>
<path d="M10.7717 24.1875H8.07874V26.875H10.7717V24.1875Z" fill="#457F2C"/>
<path d="M13.4646 24.1875H10.7717V26.875H13.4646V24.1875Z" fill="#5C7053"/>
<path d="M16.1575 24.1875H13.4646V26.875H16.1575V24.1875Z" fill="#5C7053"/>
<path d="M18.8504 24.1875H16.1575V26.875H18.8504V24.1875Z" fill="#5C7053"/>
<path d="M21.5433 24.1875H18.8504V26.875H21.5433V24.1875Z" fill="#A3E050"/>
<path d="M24.2362 24.1875H21.5433V26.875H24.2362V24.1875Z" fill="#A3E050"/>
<path d="M26.9291 24.1875H24.2362V26.875H26.9291V24.1875Z" fill="#A3E050"/>
<path d="M29.622 24.1875H26.9291V26.875H29.622V24.1875Z" fill="#A3E050"/>
<path d="M32.315 24.1875H29.622V26.875H32.315V24.1875Z" fill="#A3E050"/>
<path d="M35.0079 24.1875H32.315V26.875H35.0079V24.1875Z" fill="#5C7053"/>
<path d="M37.7008 24.1875H35.0079V26.875H37.7008V24.1875Z" fill="#5C7053"/>
<path d="M40.3937 26.875V24.1875H37.7008V26.875H40.3937Z" fill="#457F2C"/>
<path d="M13.4646 26.875H10.7717V29.5625H13.4646V26.875Z" fill="#457F2C"/>
<path d="M16.1575 26.875H13.4646V29.5625H16.1575V26.875Z" fill="#457F2C"/>
<path d="M18.8504 26.875H16.1575V29.5625H18.8504V26.875Z" fill="#5C7053"/>
<path d="M21.5433 26.875H18.8504V29.5625H21.5433V26.875Z" fill="#5C7053"/>
<path d="M24.2362 26.875H21.5433V29.5625H24.2362V26.875Z" fill="#A3E050"/>
<path d="M26.9291 26.875H24.2362V29.5625H26.9291V26.875Z" fill="#A3E050"/>
<path d="M29.622 26.875H26.9291V29.5625H29.622V26.875Z" fill="#5C7053"/>
<path d="M32.315 26.875H29.622V29.5625H32.315V26.875Z" fill="#5C7053"/>
<path d="M35.0079 29.5625V26.875H32.315V29.5625H35.0079Z" fill="#5C7053"/>
<path d="M37.7008 29.5625V26.875H35.0079V29.5625H37.7008Z" fill="#457F2C"/>
<path d="M18.8504 29.5625H16.1575V32.25H18.8504V29.5625Z" fill="#457F2C"/>
<path d="M21.5433 29.5625H18.8504V32.25H21.5433V29.5625Z" fill="#5C7053"/>
<path d="M24.2362 29.5625H21.5433V32.25H24.2362V29.5625Z" fill="#DFC855"/>
<path d="M26.9291 29.5625H24.2362V32.25H26.9291V29.5625Z" fill="#DFC855"/>
<path d="M29.622 29.5625H26.9291V32.25H29.622V29.5625Z" fill="#A3E050"/>
<path d="M32.315 29.5625H29.622V32.25H32.315V29.5625Z" fill="#5C7053"/>
<path d="M35.0079 32.25V29.5625H32.315V32.25H35.0079Z" fill="#457F2C"/>
<path d="M16.1575 32.25H13.4646V34.9375H16.1575V32.25Z" fill="#457F2C"/>
<path d="M18.8504 32.25H16.1575V34.9375H18.8504V32.25Z" fill="#5C7053"/>
<path d="M21.5433 32.25H18.8504V34.9375H21.5433V32.25Z" fill="#DFC855"/>
<path d="M24.2362 32.25H21.5433V34.9375H24.2362V32.25Z" fill="#DFC855"/>
<path d="M26.9291 32.25H24.2362V34.9375H26.9291V32.25Z" fill="#DFC855"/>
<path d="M29.622 32.25H26.9291V34.9375H29.622V32.25Z" fill="#DFC855"/>
<path d="M32.315 32.25H29.622V34.9375H32.315V32.25Z" fill="#A3E050"/>
<path d="M35.0079 32.25H32.315V34.9375H35.0079V32.25Z" fill="#5C7053"/>
<path d="M37.7008 32.25H35.0079V34.9375H37.7008V32.25Z" fill="#457F2C"/>
<path d="M16.1575 34.9375H13.4646V37.625H16.1575V34.9375Z" fill="#457F2C"/>
<path d="M18.8504 34.9375H16.1575V37.625H18.8504V34.9375Z" fill="#5C7053"/>
<path d="M21.5433 34.9375H18.8504V37.625H21.5433V34.9375Z" fill="#DFC855"/>
<path d="M24.2362 34.9375H21.5433V37.625H24.2362V34.9375Z" fill="#DFC855"/>
<path d="M26.9291 34.9375H24.2362V37.625H26.9291V34.9375Z" fill="#DFC855"/>
<path d="M29.622 34.9375H26.9291V37.625H29.622V34.9375Z" fill="#DFC855"/>
<path d="M32.315 34.9375H29.622V37.625H32.315V34.9375Z" fill="#A3E050"/>
<path d="M35.0079 34.9375H32.315V37.625H35.0079V34.9375Z" fill="#5C7053"/>
<path d="M37.7008 34.9375H35.0079V37.625H37.7008V34.9375Z" fill="#457F2C"/>
<path d="M13.4646 37.625H10.7717V40.3125H13.4646L13.4646 37.625Z" fill="#457F2C"/>
<path d="M16.1575 37.625H13.4646L13.4646 40.3125H16.1575V37.625Z" fill="#5C7053"/>
<path d="M18.8504 37.625H16.1575V40.3125H18.8504V37.625Z" fill="#A3E050"/>
<path d="M21.5433 37.625H18.8504V40.3125H21.5433V37.625Z" fill="#DFC855"/>
<path d="M24.2362 37.625H21.5433V40.3125H24.2362V37.625Z" fill="#DFC855"/>
<path d="M26.9291 37.625H24.2362V40.3125H26.9291V37.625Z" fill="#DFC855"/>
<path d="M29.622 37.625H26.9291V40.3125H29.622V37.625Z" fill="#DFC855"/>
<path d="M32.315 37.625H29.622V40.3125H32.315V37.625Z" fill="#A3E050"/>
<path d="M35.0079 37.625H32.315V40.3125H35.0079V37.625Z" fill="#A3E050"/>
<path d="M37.7008 37.625H35.0079V40.3125H37.7008V37.625Z" fill="#5C7053"/>
<path d="M40.3937 37.625H37.7008V40.3125H40.3937V37.625Z" fill="#457F2C"/>
<path d="M13.4646 40.3125H10.7717V43H13.4646V40.3125Z" fill="#457F2C"/>
<path d="M16.1575 40.3125H13.4646V43H16.1575V40.3125Z" fill="#5C7053"/>
<path d="M18.8504 40.3125H16.1575V43H18.8504V40.3125Z" fill="#A3E050"/>
<path d="M21.5433 40.3125H18.8504V43H21.5433V40.3125Z" fill="#DFC855"/>
<path d="M24.2362 40.3125H21.5433V43H24.2362V40.3125Z" fill="#DFC855"/>
<path d="M26.9291 40.3125H24.2362V43H26.9291V40.3125Z" fill="#DFC855"/>
<path d="M29.622 40.3125H26.9291V43H29.622V40.3125Z" fill="#DFC855"/>
<path d="M32.315 40.3125H29.622V43H32.315V40.3125Z" fill="#A3E050"/>
<path d="M35.0079 40.3125H32.315V43H35.0079V40.3125Z" fill="#A3E050"/>
<path d="M37.7008 40.3125H35.0079V43H37.7008V40.3125Z" fill="#5C7053"/>
<path d="M40.3937 40.3125H37.7008V43H40.3937V40.3125Z" fill="#457F2C"/>
</mask>
<g mask="url(#mask0_23_155)">
<g style="mix-blend-mode:color">
<rect x="-3" y="-5" width="50" height="52" fill="#6B847F"/>
</g>
</g>
<path d="M61.255 34.4941V30.7818H57.5566V27.0696H53.8583V15.9329H57.5566V12.2206H61.255V8.5083H79.7494V12.2206H64.9559V15.9329H61.2576V27.0696H64.9559V30.7818H72.3527V23.3574H68.6544V19.6451H79.7494V34.4941H61.255ZM83.4479 34.4941V8.50574H90.8446V12.218H94.5429V15.9303H98.2414V12.218H101.94V8.50574H109.336V34.4941H101.94V19.6451H98.2414V27.0696H94.5429V19.6451H90.8446V34.4941H83.4479ZM120.434 34.4941V30.7818H116.736V27.0696H113.037V15.9329H116.736V12.2206H120.434V8.5083H138.929V12.2206H124.135V15.9329H120.437V27.0696H124.135V30.7818H131.532V23.3574H127.834V19.6451H138.929V34.4941H120.434ZM142.627 34.4941V8.50574H150.024V12.218H153.722V15.9303H157.421V19.6426H161.118V8.50574H168.516V34.4941H161.118V27.0696H157.421V23.3574H153.722V19.6451H150.024V34.4941H142.627Z" fill="#6B847F"/>
</svg>
