<svg width="168" height="45" viewBox="0 0 168 45" fill="none" xmlns="http://www.w3.org/2000/svg">
<path d="M12.8308 0C11.1405 0 9.47801 0.360216 7.89861 0.997518C6.34691 1.66253 4.93377 2.60463 3.74229 3.82381C2.55081 5.043 1.60871 6.45615 0.971409 8.03555C0.334107 9.61495 0.00160133 11.3052 0.0293101 12.9954V17.2903H10.4201V11.0558C10.4201 10.751 10.4755 10.4739 10.5864 10.1968C10.6972 9.91975 10.8634 9.67037 11.0574 9.47641C11.2514 9.28245 11.5008 9.11619 11.7778 9.00536C12.0549 8.89452 12.332 8.83911 12.6368 8.83911H13.0247C13.3018 8.83911 13.6066 8.89452 13.8837 9.00536C14.1608 9.11619 14.4102 9.28245 14.6041 9.47641C14.7981 9.67037 14.9643 9.91975 15.0752 10.1968C15.186 10.4739 15.2414 10.751 15.2414 11.0558V27.7365C16.5992 27.7365 17.9569 27.4594 19.2315 26.9329C20.5061 26.4065 21.6422 25.6306 22.612 24.6608C23.5818 23.691 24.3576 22.5273 24.8564 21.2804C25.3829 20.0058 25.6599 18.648 25.6599 17.2903V12.9954C25.6599 9.55953 24.3299 6.23448 21.9193 3.79611C20.7278 2.57692 19.3146 1.63482 17.7629 0.969808C16.1835 0.332505 14.521 0 12.8308 0Z" fill="#6B847F"/>
<path d="M13.0247 36.1877H12.6368C12.3597 36.1877 12.0549 36.1323 11.7778 36.0214C11.5008 35.9106 11.2791 35.7443 11.0574 35.5504C10.8634 35.3564 10.6972 35.107 10.5864 34.83C10.4755 34.5529 10.4201 34.2758 10.4201 33.971V17.2903C9.06238 17.2903 7.70465 17.5674 6.43004 18.0938C5.15544 18.6203 4.01938 19.3962 3.04957 20.366C2.07976 21.3358 1.30392 22.4995 0.805157 23.7464C0.27869 25.021 0.00160175 26.3788 0.00160175 27.7365V31.9759C-0.026107 33.6662 0.306399 35.3564 0.943701 36.9358C1.581 38.5152 2.5231 39.9561 3.71458 41.1476C4.90606 42.3667 6.31921 43.3088 7.8709 43.9739C9.42259 44.6389 11.1128 44.9714 12.8031 44.9714C14.4933 44.9714 16.1835 44.6389 17.7352 43.9739C19.2869 43.3088 20.7278 42.3667 21.8915 41.1476C23.083 39.9284 24.0251 38.5152 24.6624 36.9358C25.2997 35.3564 25.6045 33.6662 25.6045 31.9759V27.7365H15.2137V33.971C15.2137 34.2758 15.1583 34.5529 15.0475 34.83C14.9366 35.107 14.7704 35.3564 14.5764 35.5504C14.3825 35.7443 14.1331 35.9106 13.856 36.0214C13.6066 36.1323 13.3295 36.1877 13.0247 36.1877ZM43.4213 13.1894H39.7637V31.782H50.4593V28.263H43.3936C43.4213 28.2907 43.4213 13.1894 43.4213 13.1894ZM62.1524 20.0889C61.6259 19.4516 60.9886 18.9251 60.2405 18.5926C59.4924 18.2601 58.6611 18.0938 57.8576 18.1493C56.9986 18.1493 56.1673 18.3155 55.3638 18.6757C54.5879 19.0359 53.8952 19.5347 53.3133 20.1997C52.0941 21.5574 51.4291 23.3308 51.4291 25.1873C51.4291 27.0161 52.0941 28.7894 53.3133 30.1749C53.8675 30.8122 54.5879 31.3386 55.3638 31.6989C56.1396 32.0591 56.9986 32.2253 57.8576 32.2253C59.714 32.2253 61.1549 31.588 62.1524 30.2857V31.8651H65.5606V18.5926H62.1524V20.0889ZM61.1272 27.875C60.7947 28.2076 60.3791 28.4846 59.908 28.6786C59.4647 28.8726 58.9659 28.9557 58.4949 28.928C58.0238 28.9557 57.5251 28.8449 57.0817 28.6786C56.6384 28.4846 56.2227 28.2353 55.8902 27.875C55.2252 27.1269 54.865 26.1848 54.865 25.1873C54.865 24.1898 55.2252 23.22 55.8902 22.4995C56.2227 22.167 56.6384 21.8899 57.0817 21.696C57.5251 21.502 58.0238 21.4189 58.4949 21.4466C58.9936 21.4189 59.4647 21.5297 59.908 21.696C60.3513 21.8899 60.767 22.1393 61.1272 22.4995C61.7922 23.2477 62.1801 24.1898 62.1801 25.1873C62.1524 26.1571 61.7922 27.1269 61.1272 27.875ZM74.3443 27.4317L70.9084 18.5095H67.1677L72.5709 31.3664C72.3493 32.1422 71.9059 32.8072 71.2963 33.3337C70.659 33.777 69.8832 33.971 69.1073 33.9156V37.1021C70.6036 37.2406 72.1276 36.825 73.3468 35.9383C74.4828 35.0793 75.3972 33.6939 76.0899 31.8097L80.9113 18.5095H77.2537L74.3443 27.4317ZM88.3095 18.1493C87.3674 18.1215 86.453 18.2878 85.5941 18.6203C84.7351 18.9528 83.9592 19.4793 83.2942 20.1443C82.0196 21.502 81.3269 23.3031 81.3269 25.1596C81.3269 27.0161 82.0473 28.8171 83.3219 30.1749C84.652 31.5049 86.3976 32.1699 88.5866 32.1699C91.1358 32.1699 93.0477 31.2278 94.35 29.3159L91.6069 27.7088C91.2467 28.1521 90.8033 28.5123 90.2768 28.734C89.7504 28.9557 89.1962 29.0665 88.642 29.0388C86.6193 29.0388 85.3724 28.2076 84.929 26.545H94.9042C94.9873 26.074 95.0428 25.6029 95.0428 25.1319C95.0982 23.2754 94.4054 21.4743 93.1586 20.1443C92.549 19.4793 91.8008 18.9528 90.9696 18.6203C90.0829 18.2878 89.1962 18.1215 88.3095 18.1493ZM84.8459 23.9127C84.9845 23.1368 85.4278 22.4441 86.0374 21.9454C86.7024 21.4466 87.506 21.1972 88.3095 21.2526C89.0577 21.2526 89.7781 21.4743 90.3877 21.9177C91.025 22.4164 91.4683 23.1368 91.5792 23.9404C91.5792 23.9127 84.8459 23.9127 84.8459 23.9127ZM100.778 20.8093V18.5372H97.3703V31.8097H100.778V25.4644C100.778 24.1898 101.194 23.2754 101.998 22.7212C102.829 22.167 103.799 21.9454 104.796 22.0839V18.2601C103.937 18.2601 103.106 18.4818 102.358 18.8974C101.61 19.313 101.056 20.0057 100.778 20.8093ZM121.394 16.0711V13.1894H109.285V16.7084H116.794L109.091 28.8726V31.8097H121.56V28.2907H113.718C113.691 28.2907 121.394 16.0711 121.394 16.0711ZM129.596 18.1493C128.654 18.1215 127.739 18.2878 126.88 18.6203C126.021 18.9528 125.245 19.4793 124.58 20.1443C123.306 21.502 122.613 23.3031 122.613 25.1596C122.613 27.0161 123.333 28.8171 124.608 30.1749C125.938 31.5049 127.684 32.1699 129.873 32.1699C132.422 32.1699 134.334 31.2278 135.636 29.3159L132.893 27.7088C132.533 28.1521 132.089 28.5123 131.563 28.734C131.036 28.9557 130.482 29.0665 129.928 29.0388C127.905 29.0388 126.658 28.2076 126.215 26.545H136.19C136.273 26.074 136.329 25.6029 136.329 25.1319C136.384 23.2754 135.692 21.4743 134.445 20.1443C133.835 19.4793 133.087 18.9528 132.256 18.6203C131.397 18.2878 130.482 18.1215 129.596 18.1493ZM126.132 23.9127C126.271 23.1368 126.714 22.4441 127.323 21.9454C127.988 21.4466 128.792 21.1972 129.596 21.2526C130.344 21.2526 131.064 21.4743 131.674 21.9177C132.311 22.4164 132.754 23.1368 132.865 23.9404L126.132 23.9127ZM142.065 20.8093V18.5372H138.656V31.8097H142.065V25.4644C142.065 24.1898 142.48 23.2754 143.284 22.7212C144.115 22.167 145.085 21.9454 146.082 22.0839V18.2601C145.223 18.2601 144.392 18.4818 143.644 18.8974C142.896 19.313 142.342 20.0057 142.065 20.8093ZM153.869 18.1493C152.261 18.177 150.737 18.7311 149.491 19.7841C148.271 20.8093 147.44 22.2502 147.135 23.8296C146.83 25.409 147.08 27.0438 147.856 28.4569C148.632 29.8701 149.851 30.9784 151.319 31.588C152.788 32.1976 154.45 32.253 155.974 31.782C157.498 31.3109 158.828 30.3134 159.715 28.9834C160.602 27.6534 160.99 26.0463 160.823 24.4392C160.657 22.832 159.964 21.3358 158.828 20.1997C158.191 19.5347 157.415 19.0082 156.556 18.6757C155.697 18.2878 154.783 18.1215 153.869 18.1493ZM156.418 27.7919C156.085 28.1244 155.697 28.4015 155.254 28.5678C154.811 28.734 154.34 28.8449 153.869 28.8171C153.397 28.8171 152.926 28.734 152.483 28.5678C152.04 28.4015 151.652 28.1244 151.319 27.7919C150.654 27.0715 150.294 26.1294 150.294 25.1596C150.294 24.1898 150.654 23.2477 151.319 22.5273C151.652 22.1947 152.04 21.9177 152.483 21.7514C152.926 21.5851 153.397 21.4743 153.869 21.502C154.34 21.502 154.811 21.5851 155.254 21.7514C155.697 21.9177 156.085 22.1947 156.418 22.5273C157.083 23.2477 157.443 24.1898 157.443 25.1596C157.443 26.1294 157.083 27.0715 156.418 27.7919ZM168 27.7088H163.844V31.8097H168V27.7088Z" fill="#6B847F"/>
</svg>
