<svg width="108" height="44" viewBox="0 0 108 44" fill="none" xmlns="http://www.w3.org/2000/svg">
<path d="M13.657 29.2877L0.855437 32.2514C0.388507 32.3683 0.0383149 32.8363 0.0383149 33.3042V42.117C0.0383149 42.8578 0.621972 43.3259 1.36127 43.17L19.2212 39.0363C19.9605 38.8804 20.2718 38.1784 19.9605 37.5155L16.7309 30.8475C16.2251 29.7947 16.731 28.7028 17.8593 28.4689L29.5325 25.6613C30.3496 25.4663 31.05 24.6084 31.05 23.7505V15.6006C31.05 14.8597 30.4664 14.3528 29.7271 14.5478L12.8788 18.5642C11.8282 18.7982 11.3613 19.812 11.8282 20.7869L14.7854 26.9091C15.2912 27.9619 14.7854 29.0148 13.657 29.2877Z" fill="#6B847F"/>
<path d="M5.214 7.25599L8.56034 14.1191C8.98835 15.0159 8.56034 15.9518 7.58756 16.1468L1.40078 17.5896C0.62257 17.7846 0 18.5645 0 19.3444V26.7143C0 27.9622 1.01167 28.7421 2.2179 28.4691L7.97667 27.1433C8.75487 26.9873 9.37746 26.1684 9.37746 25.3885L9.41637 17.8235C9.41637 16.7707 10.2724 15.7178 11.2841 15.4839L30.1557 10.9605C30.6226 10.8435 30.9728 10.3756 30.9728 9.90761V1.09483C30.9728 0.353928 30.3892 -0.153004 29.6498 0.0419693L5.95333 5.73518C5.214 5.89117 4.90273 6.59307 5.214 7.25599Z" fill="#6B847F"/>
<path d="M63.0033 27.7715H52.2249V10.8001H47.2502V32.4001H63.0033V27.7715Z" fill="#6B847F"/>
<path d="M66.247 32.4001H71.2217V10.8001H66.247V32.4001Z" fill="#6B847F"/>
<path d="M74.9373 32.4001H79.666V27.6481H74.9373V32.4001Z" fill="#6B847F"/>
<path d="M88.3437 23.9761H98.7535V19.7178H88.3437V15.1818H99.6442V10.8001H83.369V32.4001H88.3437V23.9761Z" fill="#6B847F"/>
<path d="M103.026 32.4001H108V10.8001H103.026V32.4001Z" fill="#6B847F"/>
</svg>
