<svg width="185" height="37" viewBox="0 0 185 37" fill="none" xmlns="http://www.w3.org/2000/svg">
<path fill-rule="evenodd" clip-rule="evenodd" d="M35.5905 10.6305C36.4557 12.7198 36.9012 14.9591 36.9012 17.2205H31.3908C31.3908 15.6828 31.0876 14.1601 30.4992 12.7393C29.911 11.3186 29.0483 10.0277 27.9608 8.94032C26.8735 7.85297 25.5825 6.99041 24.162 6.4019C22.7411 5.81344 21.2184 5.51056 19.6807 5.51056V0C21.9422 0 24.1814 0.445418 26.2707 1.31084C28.3603 2.17623 30.2583 3.44471 31.8574 5.04377C33.4565 6.64283 34.7248 8.5412 35.5905 10.6305ZM31.8574 31.8574C28.6278 35.0868 24.248 36.9012 19.6807 36.9012V31.3908C22.7863 31.3908 25.7648 30.1568 27.9608 27.961C30.1568 25.7648 31.3908 22.7863 31.3908 19.6807H36.9012C36.9012 24.2478 35.0868 28.6278 31.8574 31.8574ZM0 19.6807C0 21.9422 0.445418 24.1814 1.31085 26.2707C2.17623 28.3597 3.44469 30.2583 5.04377 31.8574C6.64285 33.4565 8.54122 34.7248 10.6305 35.5905C12.7198 36.4558 14.9591 36.9012 17.2205 36.9012V31.3908C15.6828 31.3908 14.1601 31.0876 12.7393 30.4992C11.3186 29.9107 10.0277 29.0483 8.94032 27.961C7.85293 26.8735 6.99041 25.5825 6.40192 24.1618C5.81346 22.7411 5.51057 21.2184 5.51057 19.6807H0ZM10.6305 1.31084C12.7198 0.445418 14.9591 0 17.2205 0V5.51056C15.6828 5.51056 14.1601 5.81344 12.7393 6.4019C11.3186 6.99041 10.0277 7.85297 8.94032 8.94032C7.85293 10.0277 6.99041 11.3186 6.40192 12.7393C5.81346 14.1601 5.51057 15.6828 5.51057 17.2205H0C0 14.9591 0.445418 12.7198 1.31085 10.6305C2.17623 8.5412 3.44469 6.64283 5.04377 5.04377C6.64285 3.44471 8.54122 2.17623 10.6305 1.31084Z" fill="#6B847F"/>
<path d="M58.5043 27.7949H50.2485V3.43198H58.6708C61.0897 3.43198 63.1675 3.91972 64.9043 4.89518C66.6491 5.86272 67.9893 7.25455 68.9251 9.07066C69.861 10.8868 70.3289 13.0598 70.3289 15.5896C70.3289 18.1274 69.857 20.3084 68.9132 22.1324C67.9774 23.9565 66.6253 25.3562 64.8567 26.3317C63.0961 27.3072 60.9786 27.7949 58.5043 27.7949ZM54.6619 23.9763H58.2902C59.9873 23.9763 61.4029 23.667 62.537 23.0484C63.6711 22.4219 64.5236 21.49 65.0947 20.2529C65.6657 19.0077 65.9512 17.4533 65.9512 15.5896C65.9512 13.7259 65.6657 12.1795 65.0947 10.9502C64.5236 9.71304 63.679 8.78913 62.5608 8.17847C61.4505 7.55988 60.0706 7.25058 58.421 7.25058H54.6619V23.9763Z" fill="#6B847F"/>
<path d="M81.7511 28.1518C79.9192 28.1518 78.337 27.7711 77.0046 27.0098C75.6802 26.2405 74.6611 25.154 73.9474 23.7503C73.2336 22.3386 72.8767 20.6771 72.8767 18.7659C72.8767 16.8863 73.2336 15.2367 73.9474 13.8171C74.6691 12.3896 75.6763 11.2793 76.9689 10.4863C78.2616 9.68529 79.7804 9.28479 81.5251 9.28479C82.6513 9.28479 83.714 9.46719 84.7132 9.832C85.7204 10.1889 86.6086 10.744 87.3779 11.4974C88.1551 12.2508 88.7658 13.2105 89.2099 14.3763C89.654 15.5341 89.8761 16.9141 89.8761 18.516V19.8365H74.8991V16.9339H85.7482C85.7402 16.1091 85.5618 15.3755 85.2128 14.7331C84.8639 14.0828 84.3762 13.5713 83.7496 13.1986C83.1311 12.8258 82.4094 12.6394 81.5846 12.6394C80.7043 12.6394 79.931 12.8536 79.2649 13.2818C78.5987 13.7022 78.0792 14.2573 77.7065 14.9473C77.3417 15.6293 77.1553 16.3787 77.1474 17.1956V19.7294C77.1474 20.7921 77.3417 21.7042 77.7303 22.4655C78.1189 23.2189 78.6621 23.7979 79.36 24.2023C80.0579 24.5988 80.8748 24.7971 81.8106 24.7971C82.4371 24.7971 83.0042 24.7099 83.5117 24.5354C84.0193 24.353 84.4594 24.0873 84.8322 23.7384C85.2049 23.3894 85.4865 22.9572 85.6768 22.4417L89.6976 22.8938C89.4438 23.9565 88.9601 24.8843 88.2463 25.6774C87.5405 26.4625 86.6364 27.0732 85.534 27.5094C84.4317 27.9376 83.1707 28.1518 81.7511 28.1518Z" fill="#6B847F"/>
<path d="M93.0396 27.7949V3.43198H108.647V7.13162H97.4529V13.7458H107.576V17.4454H97.4529V27.7949H93.0396Z" fill="#6B847F"/>
<path d="M111.808 27.7949V9.52271H116.114V27.7949H111.808ZM113.973 6.92939C113.291 6.92939 112.704 6.70337 112.212 6.25132C111.72 5.79134 111.474 5.24017 111.474 4.59778C111.474 3.94747 111.72 3.39629 112.212 2.94425C112.704 2.48427 113.291 2.25428 113.973 2.25428C114.663 2.25428 115.249 2.48427 115.733 2.94425C116.225 3.39629 116.471 3.94747 116.471 4.59778C116.471 5.24017 116.225 5.79134 115.733 6.25132C115.249 6.70337 114.663 6.92939 113.973 6.92939Z" fill="#6B847F"/>
<path d="M122.525 28.0566C121.803 28.0566 121.185 27.8028 120.669 27.2953C120.154 26.7877 119.9 26.1691 119.908 25.4395C119.9 24.7257 120.154 24.1151 120.669 23.6075C121.185 23.1 121.803 22.8462 122.525 22.8462C123.223 22.8462 123.83 23.1 124.345 23.6075C124.868 24.1151 125.134 24.7257 125.142 25.4395C125.134 25.9233 125.007 26.3634 124.761 26.7599C124.523 27.1565 124.206 27.4737 123.81 27.7116C123.421 27.9416 122.993 28.0566 122.525 28.0566Z" fill="#6B847F"/>
<path d="M134.176 28.1637C133.018 28.1637 131.975 27.9575 131.048 27.5451C130.128 27.1248 129.398 26.5062 128.859 25.6893C128.327 24.8725 128.062 23.8653 128.062 22.6677C128.062 21.6368 128.252 20.7842 128.633 20.1101C129.013 19.436 129.533 18.8967 130.191 18.4923C130.849 18.0878 131.591 17.7825 132.416 17.5763C133.248 17.3621 134.109 17.2075 134.997 17.1123C136.068 17.0013 136.936 16.9022 137.602 16.8149C138.268 16.7198 138.752 16.577 139.054 16.3867C139.363 16.1884 139.518 15.8831 139.518 15.4707V15.3993C139.518 14.5031 139.252 13.8092 138.72 13.3175C138.189 12.8258 137.424 12.58 136.425 12.58C135.37 12.58 134.533 12.81 133.915 13.2699C133.304 13.7299 132.891 14.2732 132.677 14.8997L128.657 14.3287C128.974 13.2184 129.497 12.2905 130.227 11.545C130.956 10.7916 131.849 10.2285 132.903 9.8558C133.958 9.47513 135.124 9.28479 136.401 9.28479C137.281 9.28479 138.157 9.38789 139.03 9.59408C139.902 9.80028 140.699 10.1413 141.421 10.6171C142.143 11.085 142.721 11.7235 143.158 12.5324C143.602 13.3413 143.824 14.3525 143.824 15.5659V27.7949H139.684V25.2848H139.541C139.28 25.7924 138.911 26.2682 138.435 26.7124C137.967 27.1485 137.376 27.5015 136.662 27.7711C135.957 28.0328 135.128 28.1637 134.176 28.1637ZM135.294 24.9993C136.159 24.9993 136.908 24.8288 137.543 24.4878C138.177 24.1389 138.665 23.6789 139.006 23.1079C139.355 22.5369 139.529 21.9143 139.529 21.2402V19.0871C139.395 19.1981 139.165 19.3012 138.839 19.3963C138.522 19.4915 138.165 19.5748 137.769 19.6462C137.372 19.7175 136.98 19.781 136.591 19.8365C136.202 19.892 135.865 19.9396 135.58 19.9792C134.938 20.0665 134.363 20.2092 133.855 20.4075C133.347 20.6058 132.947 20.8833 132.654 21.2402C132.36 21.5892 132.213 22.0412 132.213 22.5964C132.213 23.3894 132.503 23.9882 133.082 24.3926C133.661 24.7971 134.398 24.9993 135.294 24.9993Z" fill="#6B847F"/>
<path d="M147.484 34.647V9.52271H151.719V12.5443H151.969C152.191 12.1002 152.504 11.6283 152.909 11.1287C153.313 10.6211 153.86 10.1889 154.55 9.832C155.24 9.46719 156.12 9.28479 157.191 9.28479C158.603 9.28479 159.876 9.64563 161.01 10.3673C162.152 11.0811 163.056 12.1398 163.722 13.5435C164.396 14.9393 164.733 16.6523 164.733 18.6826C164.733 20.689 164.404 22.3941 163.746 23.7979C163.088 25.2016 162.191 26.2722 161.057 27.0098C159.923 27.7473 158.638 28.1161 157.203 28.1161C156.156 28.1161 155.288 27.9416 154.598 27.5927C153.908 27.2437 153.353 26.8234 152.932 26.3317C152.52 25.8321 152.199 25.3602 151.969 24.9161H151.79V34.647H147.484ZM151.707 18.6588C151.707 19.8405 151.874 20.8754 152.207 21.7636C152.548 22.6519 153.035 23.3458 153.67 23.8454C154.312 24.3371 155.089 24.583 156.001 24.583C156.953 24.583 157.75 24.3292 158.393 23.8216C159.035 23.3062 159.519 22.6043 159.844 21.7161C160.177 20.8199 160.344 19.8008 160.344 18.6588C160.344 17.5247 160.181 16.5175 159.856 15.6372C159.531 14.7569 159.047 14.067 158.404 13.5673C157.762 13.0677 156.961 12.8179 156.001 12.8179C155.082 12.8179 154.3 13.0598 153.658 13.5435C153.016 14.0273 152.528 14.7054 152.195 15.5777C151.87 16.4501 151.707 17.4771 151.707 18.6588Z" fill="#6B847F"/>
<path d="M167.751 34.647V9.52271H171.986V12.5443H172.236C172.458 12.1002 172.771 11.6283 173.175 11.1287C173.58 10.6211 174.127 10.1889 174.817 9.832C175.507 9.46719 176.387 9.28479 177.458 9.28479C178.87 9.28479 180.143 9.64563 181.277 10.3673C182.419 11.0811 183.323 12.1398 183.989 13.5435C184.663 14.9393 185 16.6523 185 18.6826C185 20.689 184.671 22.3941 184.013 23.7979C183.354 25.2016 182.458 26.2722 181.324 27.0098C180.19 27.7473 178.905 28.1161 177.47 28.1161C176.423 28.1161 175.555 27.9416 174.865 27.5927C174.175 27.2437 173.62 26.8234 173.199 26.3317C172.787 25.8321 172.466 25.3602 172.236 24.9161H172.057V34.647H167.751ZM171.974 18.6588C171.974 19.8405 172.14 20.8754 172.474 21.7636C172.815 22.6519 173.302 23.3458 173.937 23.8454C174.579 24.3371 175.356 24.583 176.268 24.583C177.22 24.583 178.017 24.3292 178.659 23.8216C179.302 23.3062 179.786 22.6043 180.111 21.7161C180.444 20.8199 180.61 19.8008 180.61 18.6588C180.61 17.5247 180.448 16.5175 180.123 15.6372C179.798 14.7569 179.314 14.067 178.671 13.5673C178.029 13.0677 177.228 12.8179 176.268 12.8179C175.348 12.8179 174.567 13.0598 173.925 13.5435C173.283 14.0273 172.795 14.7054 172.462 15.5777C172.137 16.4501 171.974 17.4771 171.974 18.6588Z" fill="#6B847F"/>
</svg>
