<svg width="288" height="51" viewBox="0 0 288 51" fill="none" xmlns="http://www.w3.org/2000/svg">
<path d="M42.4249 30.5824C41.5611 31.1103 40.5532 31.2063 39.7854 30.7744C38.8255 30.1984 38.2496 28.9027 38.2496 27.127V21.7039C38.2496 19.1123 37.2418 17.2406 35.5141 16.7607C32.5866 15.8968 30.3789 19.4962 29.5631 20.84L24.3799 29.1426V18.9203C24.3319 16.5687 23.5641 15.177 22.1243 14.745C21.1645 14.4571 19.7247 14.6011 18.3329 16.7127L6.76687 35.2376C5.23113 32.3101 4.41526 29.0466 4.41526 25.7352C4.41526 14.5531 13.3898 5.48256 24.3799 5.48256C35.3701 5.48256 44.3446 14.5531 44.3446 25.7352V25.7832V25.8312C44.4406 27.9908 43.7687 29.7185 42.4249 30.5824ZM48.7599 25.7352V25.6872V25.6392C48.7119 12.0575 37.7697 0.971313 24.3799 0.971313C10.9422 0.971313 0 12.0575 0 25.7352C0 39.3649 10.9422 50.4991 24.3799 50.4991C30.5709 50.4991 36.4259 48.1474 40.9372 43.8762C41.849 43.0123 41.897 41.6205 41.0332 40.7087C40.2173 39.7969 38.8255 39.7489 37.9137 40.5647C37.9137 40.5647 37.9137 40.5647 37.8657 40.6127C34.2183 44.0681 29.3231 46.0358 24.284 46.0358C18.3809 46.0358 13.1018 43.4442 9.45442 39.3169L19.8687 22.6157V30.3424C19.8687 34.0378 21.3084 35.2376 22.5082 35.5736C23.708 35.9095 25.5317 35.6695 27.4994 32.5501L33.2105 23.2876C33.4024 22.9996 33.5464 22.7117 33.7384 22.5197V27.2229C33.7384 30.6784 35.1301 33.4619 37.5297 34.8057C39.6894 36.0535 42.4249 35.9095 44.6806 34.5177C47.4641 32.694 48.9518 29.5266 48.7599 25.7352ZM82.7382 17.2886C83.3141 17.6245 83.842 18.4404 83.842 19.1603C83.842 20.3121 82.8822 21.2719 81.7784 21.2719C81.4904 21.2719 81.2505 21.1759 81.0105 21.128C79.7147 20.1681 78.083 19.5442 76.3553 19.5442C72.276 19.5442 69.4924 22.8557 69.4924 26.983C69.4924 31.1103 72.324 34.3737 76.3553 34.3737C78.3709 34.3737 80.1946 33.5579 81.5384 32.2621C81.8744 32.0221 82.3063 31.8782 82.7382 31.8782C83.842 31.8782 84.7059 32.742 84.7059 33.8458C84.7059 34.5657 84.274 35.1896 83.746 35.5256C81.7784 37.2053 79.1388 38.3091 76.4033 38.3091C70.1643 38.3091 65.0772 33.1739 65.0772 26.839C65.0772 20.5041 70.1643 15.3689 76.4033 15.3689C78.7069 15.3209 80.9145 16.0408 82.7382 17.2886ZM94.1603 22.0878C98.4316 22.0878 101.983 25.6872 101.983 30.1505C101.983 34.5657 98.3836 38.3571 94.1603 38.3571C89.6971 38.3571 86.0017 34.6137 86.0017 30.1505C86.0017 25.6872 89.6971 22.0878 94.1603 22.0878ZM94.1123 34.3737C95.984 34.3737 97.5677 32.598 97.5677 30.1984C97.5677 27.7988 95.984 26.2631 94.1123 26.2631C92.0967 26.2631 90.4169 27.7508 90.4169 30.1984C90.4169 32.55 92.0967 34.3737 94.1123 34.3737ZM104.671 35.8615V24.5354C104.671 23.2876 105.63 22.2798 106.878 22.2798C108.078 22.2798 109.086 23.2876 109.086 24.5354V35.8615C109.086 37.1093 108.078 38.1171 106.878 38.1171C105.678 38.1171 104.671 37.0613 104.671 35.8615ZM104.335 18.0085C104.335 16.5207 105.486 15.3689 106.878 15.3689C108.318 15.3689 109.47 16.5687 109.47 18.0085C109.47 19.4482 108.318 20.6 106.878 20.6C105.438 20.552 104.335 19.4002 104.335 18.0085ZM117.532 29.7185V35.8615C117.532 37.1093 116.525 38.1171 115.325 38.1171C114.125 38.1171 113.117 37.1093 113.117 35.8615V24.0075C113.117 23.0476 113.885 22.2798 114.845 22.2798C115.805 22.2798 116.525 23.0956 116.525 24.0075C118.3 22.3278 119.884 22.0878 121.372 22.0878C125.787 22.0878 127.755 25.3993 127.755 29.1906V35.8615C127.755 37.1093 126.747 38.1171 125.547 38.1171C124.347 38.1171 123.339 37.1093 123.339 35.8615V29.7185C123.339 27.7988 123.099 26.1671 120.316 26.1671C118.348 26.1671 117.532 27.7988 117.532 29.7185ZM142.056 32.0701C141.528 32.0701 141.192 31.8302 140.905 31.4942L135.769 25.9272V35.8615C135.769 37.1093 134.762 38.1171 133.562 38.1171C132.362 38.1171 131.354 37.1093 131.354 35.8615V16.1848C131.498 15.8488 131.834 15.6089 132.17 15.6089C132.554 15.6089 132.89 15.9448 133.13 16.1848L141.336 25.3992C141.576 25.6872 141.864 25.8312 142.056 25.8312C142.2 25.8312 142.536 25.6872 142.776 25.3992L150.983 16.1848C151.223 15.9448 151.511 15.6089 151.943 15.6089C152.327 15.6089 152.663 15.8488 152.759 16.1848V35.8615C152.759 37.1093 151.799 38.1171 150.551 38.1171C149.351 38.1171 148.343 37.1093 148.343 35.8615V25.9272L143.208 31.4942C142.824 31.8302 142.488 32.0701 142.056 32.0701ZM163.269 34.3737C165.236 34.3737 166.916 32.598 166.916 30.1984C166.916 27.7988 165.188 26.2151 163.269 26.2151C161.349 26.2151 159.765 27.8468 159.765 30.1984C159.765 32.5021 161.301 34.3737 163.269 34.3737ZM167.972 36.3894L167.876 35.8615C167.012 37.5412 164.277 38.3091 162.549 38.3091C158.422 38.3091 155.35 34.5657 155.35 30.1025C155.35 25.6872 158.47 22.0398 162.789 22.0398C163.509 22.0398 166.004 22.2318 167.924 24.4874L168.02 23.9595C168.02 22.9996 168.74 22.2318 169.7 22.2318C170.66 22.2318 171.427 23.0476 171.427 23.9595V36.3414C171.427 37.3013 170.66 38.0691 169.7 38.0691C168.692 38.1171 167.972 37.3013 167.972 36.3894ZM183.569 26.1671H183.089C180.306 26.3111 179.778 27.8948 179.778 29.7185V35.8615C179.778 37.1093 178.77 38.1171 177.57 38.1171C176.371 38.1171 175.363 37.1093 175.363 35.8615V24.0075C175.363 23.0476 176.131 22.2798 177.09 22.2798C178.05 22.2798 178.77 23.0956 178.77 24.0075C180.402 22.4717 181.746 22.1358 183.089 22.0878H183.521C184.577 22.0878 185.537 22.9997 185.537 24.1515C185.585 25.2073 184.625 26.1671 183.569 26.1671ZM200.607 34.8057C200.799 35.1416 200.943 35.4776 200.943 35.8615C200.943 37.0133 199.887 38.0691 198.735 38.0691C197.967 38.0691 197.295 37.4932 196.767 36.8213L191.68 30.9183V35.8135C191.68 37.0613 190.672 38.0691 189.472 38.0691C188.273 38.0691 187.265 37.0613 187.265 35.8135V17.8165C187.265 16.5687 188.225 15.5609 189.472 15.5609C190.72 15.5609 191.68 16.5687 191.68 17.8165V29.0466L196.767 23.4316C197.295 22.8557 197.919 22.2318 198.687 22.2318C199.791 22.2318 200.799 23.2396 200.799 24.3914C200.799 24.7274 200.703 25.1113 200.511 25.3992L196.479 29.8145L200.607 34.8057ZM209.245 26.2151C208.045 26.2151 206.078 26.839 206.078 28.7107H212.461C212.413 26.839 210.397 26.2151 209.245 26.2151ZM215.004 31.5422H206.078C206.078 34.1818 208.621 34.6137 209.725 34.6137C210.541 34.6137 211.693 34.4697 212.605 34.0378C212.893 33.8458 213.324 33.7019 213.756 33.7019C214.716 33.7019 215.532 34.5177 215.532 35.5256C215.532 36.1974 215.1 36.7734 214.572 37.1093C213.228 38.1171 211.453 38.3571 209.773 38.3571C205.31 38.3571 201.614 35.9575 201.614 30.3424C201.614 25.9272 203.87 22.0878 209.149 22.0878C213.42 22.0878 216.636 24.8713 216.732 29.8145C216.732 30.7264 215.964 31.5422 215.004 31.5422ZM227.29 38.3091H226.09C222.731 38.3091 220.763 36.8214 220.763 31.5902V26.1671H219.611C218.556 26.1671 217.644 25.2073 217.644 24.1515C217.644 22.9997 218.604 22.0878 219.611 22.0878H220.763V17.9125C220.763 16.6647 221.723 15.6569 222.971 15.6569C224.171 15.6569 225.178 16.6647 225.178 17.9125V22.0878H227.002C228.058 22.0878 228.97 22.9997 228.97 24.1515C228.97 25.2073 228.01 26.1671 227.002 26.1671H225.178V30.7264C225.178 33.7499 225.322 34.3737 226.666 34.3737H227.29C228.346 34.3737 229.258 35.2376 229.258 36.3414C229.258 37.3973 228.346 38.3091 227.29 38.3091ZM248.647 17.2886C249.222 17.6245 249.75 18.4404 249.75 19.1603C249.75 20.3121 248.791 21.2719 247.687 21.2719C247.399 21.2719 247.159 21.1759 246.919 21.128C245.623 20.1681 243.991 19.5442 242.264 19.5442C238.184 19.5442 235.401 22.8557 235.401 26.983C235.401 31.1103 238.232 34.3737 242.264 34.3737C244.279 34.3737 246.103 33.5579 247.447 32.2621C247.783 32.0221 248.215 31.8782 248.647 31.8782C249.75 31.8782 250.614 32.742 250.614 33.8458C250.614 34.5657 250.182 35.1896 249.654 35.5256C247.687 37.2053 245.047 38.3091 242.312 38.3091C236.073 38.3091 230.986 33.1739 230.986 26.839C230.986 20.5041 236.073 15.3689 242.312 15.3689C244.615 15.3209 246.871 16.0408 248.647 17.2886ZM259.829 34.3737C261.796 34.3737 263.476 32.598 263.476 30.1984C263.476 27.7988 261.748 26.2151 259.829 26.2151C257.861 26.2151 256.325 27.8468 256.325 30.1984C256.325 32.5021 257.909 34.3737 259.829 34.3737ZM264.532 36.3894L264.436 35.8615C263.572 37.5412 260.837 38.3091 259.109 38.3091C254.981 38.3091 251.91 34.5657 251.91 30.1025C251.91 25.6872 255.029 22.0398 259.349 22.0398C260.069 22.0398 262.564 22.2318 264.484 24.4874L264.58 23.9595C264.58 22.9996 265.3 22.2318 266.26 22.2318C267.219 22.2318 267.987 23.0476 267.987 23.9595V36.3414C267.987 37.3013 267.219 38.0691 266.26 38.0691C265.252 38.1171 264.532 37.3013 264.532 36.3894ZM280.033 34.3737C282.001 34.3737 283.537 32.5021 283.537 30.1984C283.537 27.7988 281.953 26.2151 280.033 26.2151C278.066 26.2151 276.386 27.7988 276.386 30.1984C276.386 32.598 278.066 34.3737 280.033 34.3737ZM276.386 37.0133V42.6284C276.386 43.8762 275.378 44.884 274.178 44.884C272.979 44.884 271.971 43.8762 271.971 42.6284V24.0075C271.971 23.0476 272.739 22.2798 273.698 22.2798C274.658 22.2798 275.378 23.0956 275.378 24.1994C277.01 22.5197 279.025 22.0878 280.561 22.0878C284.833 22.0878 288 25.6872 288 30.1505C288 34.5657 284.977 38.3571 280.801 38.3571C279.505 38.3091 277.586 37.9252 276.386 37.0133Z" fill="#6B847F"/>
</svg>
