<svg width="203" height="55" viewBox="0 0 203 55" fill="none" xmlns="http://www.w3.org/2000/svg">
<path d="M83.5165 21.8944C82.9388 19.7548 81.5812 18.192 78.8949 18.192C74.8973 18.192 73.2278 21.7098 73.2278 25.2796C73.2278 28.8494 74.8973 32.3731 78.8949 32.3731C81.7834 32.3731 83.3894 30.2104 83.6493 27.4999H86.8382C86.5782 31.9578 83.4183 35.0316 78.9065 35.0316C73.3144 35.0316 69.9754 30.5968 69.9754 25.2796C69.9754 19.9624 73.2913 15.5045 78.8661 15.5045C83.0716 15.5045 86.376 17.8517 86.7804 21.8482L83.5165 21.8944Z" fill="#6B847F"/>
<path d="M88.7388 27.8286C88.7388 23.711 91.2171 20.741 95.5555 20.741C99.894 20.741 102.372 23.711 102.372 27.8286C102.372 31.9463 99.894 34.9452 95.5555 34.9452C91.2171 34.9452 88.7388 31.9751 88.7388 27.8286ZM99.3914 27.8286C99.3914 25.5218 98.236 23.0824 95.5555 23.0824C92.8751 23.0824 91.7197 25.5045 91.7197 27.8286C91.7197 30.1527 92.8751 32.6037 95.5555 32.6037C98.236 32.6037 99.3914 30.1758 99.3914 27.8286Z" fill="#6B847F"/>
<path d="M104.931 15.9659H107.907V18.7802H104.931V15.9659ZM104.931 21.1043H107.907V34.5818H104.931V21.1043Z" fill="#6B847F"/>
<path d="M111.147 21.1043H113.967V23.0881L114.019 23.14C114.446 22.4063 115.06 21.7981 115.799 21.3769C116.537 20.9557 117.374 20.7363 118.224 20.741C121.147 20.741 123.002 22.3038 123.002 25.3546V34.6107H120.027V26.1101C119.975 23.9993 119.137 23.0881 117.392 23.0881C115.405 23.0881 114.128 24.651 114.128 26.6349V34.5876H111.153L111.147 21.1043Z" fill="#6B847F"/>
<path d="M142.828 34.5818H140.737L140.24 32.3904C138.507 34.3742 136.895 35.0201 134.631 35.0201C129.044 35.0201 125.694 30.5795 125.694 25.2681C125.694 19.9567 129.044 15.5045 134.631 15.5045C138.674 15.5045 142.141 17.6671 142.62 21.8482H139.431C139.119 19.3973 136.976 18.1458 134.625 18.1458C130.627 18.1458 128.958 21.6637 128.958 25.2335C128.958 28.8033 130.627 32.3269 134.625 32.3269C137.964 32.3788 139.795 30.3719 139.824 27.2173H134.862V24.7433H142.793L142.828 34.5818Z" fill="#6B847F"/>
<path d="M148.287 28.6129C148.287 30.7237 149.443 32.6037 151.915 32.6037C153.648 32.6037 154.682 31.8483 155.202 30.3604H158.027C157.374 33.3073 154.867 34.974 151.915 34.974C147.686 34.974 145.306 32.027 145.306 27.8806C145.306 24.0455 147.819 20.764 151.834 20.764C156.092 20.764 158.703 24.5934 158.189 28.636L148.287 28.6129ZM155.219 26.6579C155.115 24.7779 153.833 23.0881 151.823 23.0881C151.353 23.085 150.888 23.1754 150.454 23.354C150.02 23.5326 149.626 23.7958 149.295 24.1282C148.964 24.4606 148.703 24.8556 148.527 25.29C148.351 25.7243 148.264 26.1894 148.27 26.6579H155.219Z" fill="#6B847F"/>
<path d="M169.598 25.6141C169.361 23.9705 168.16 23.0881 166.513 23.0881C164.965 23.0881 162.805 23.8955 162.805 27.9901C162.805 30.2335 163.798 32.6037 166.38 32.6037C168.113 32.6037 169.304 31.4503 169.592 29.5241H172.567C171.99 33.019 169.858 34.9452 166.375 34.9452C162.146 34.9452 159.818 31.9463 159.818 27.9844C159.818 23.9186 162.036 20.7352 166.479 20.7352C169.615 20.7352 172.256 22.2981 172.567 25.6083L169.598 25.6141Z" fill="#6B847F"/>
<path d="M175.092 15.9659H178.067V26.5541L183.445 21.1043H187.096L181.897 26.0582L187.564 34.5876H183.925L179.8 28.042L178.027 29.7721V34.5991H175.057L175.092 15.9659Z" fill="#6B847F"/>
<path d="M188.408 27.8286C188.408 23.711 190.886 20.741 195.225 20.741C199.563 20.741 202.041 23.711 202.041 27.8286C202.041 31.9463 199.557 34.9452 195.225 34.9452C190.892 34.9452 188.408 31.9751 188.408 27.8286ZM199.066 27.8286C199.066 25.5218 197.911 23.0824 195.225 23.0824C192.538 23.0824 191.389 25.5045 191.389 27.8286C191.389 30.1527 192.544 32.6037 195.225 32.6037C197.905 32.6037 199.06 30.1758 199.06 27.8286H199.066Z" fill="#6B847F"/>
<path d="M53.4014 27.4999C53.4265 32.7722 51.8848 37.9335 48.9713 42.331C46.0578 46.7285 41.9033 50.1647 37.0334 52.205C32.1635 54.2452 26.7968 54.7979 21.6122 53.7931C16.4276 52.7883 11.6579 50.2711 7.9065 46.56C4.15505 42.8489 1.59034 38.1105 0.536729 32.9441C-0.516884 27.7777 -0.0120581 22.4154 1.98736 17.5355C3.98677 12.6555 7.39095 8.47714 11.7693 5.52876C16.1477 2.58037 21.3037 0.994438 26.585 0.971565C33.6646 0.940903 40.4665 3.71827 45.4952 8.69298C50.524 13.6677 53.3678 20.4325 53.4014 27.4999Z" fill="#8DC63F"/>
<path d="M51.3969 27.5056C51.4185 32.3803 49.9918 37.1519 47.2971 41.2171C44.6024 45.2823 40.7607 48.4586 36.2578 50.3443C31.7549 52.23 26.793 52.7404 21.9995 51.8111C17.206 50.8818 12.7962 48.5544 9.32761 45.1232C5.85906 41.692 3.48754 37.3112 2.51291 32.5346C1.53829 27.7579 2.00433 22.8001 3.8521 18.2879C5.69988 13.7757 8.84641 9.91174 12.8938 7.18466C16.9413 4.45757 21.7078 2.98982 26.5908 2.96696C33.1397 2.93783 39.432 5.50662 44.0839 10.1084C48.7358 14.7101 51.3663 20.968 51.3969 27.5056Z" fill="#F9E988"/>
<path d="M27.157 4.54713C28.7275 4.26862 30.335 4.26862 31.9056 4.54713C33.4911 4.79759 35.0238 5.3102 36.4404 6.06386C37.8011 6.88078 39.0849 7.81885 40.2763 8.86662C41.4895 9.84702 42.691 10.8563 43.8407 11.9578C45.0114 13.041 46.0332 14.2743 46.8793 15.6256C47.7496 16.966 48.4629 18.4018 49.0052 19.9047C50.0701 22.9319 50.3697 26.1747 49.8775 29.3453H49.7273C49.2699 26.335 48.4954 23.3813 47.4166 20.5333C46.8984 19.1263 46.2886 17.7547 45.5911 16.4272C44.8629 15.101 44.0606 13.8168 43.1879 12.5806C42.3011 11.3293 41.214 10.2324 39.9701 9.33375C38.6941 8.4973 37.3206 7.81946 35.8801 7.31529C34.4878 6.73859 33.1014 6.19651 31.6456 5.78128C30.1898 5.36605 28.7109 5.04886 27.1685 4.74898L27.157 4.54713Z" fill="#6B847F"/>
<path d="M39.2076 18.809C37.4167 18.2899 35.5566 17.5575 33.6791 16.8136C33.4132 16.0969 32.9358 15.4775 32.31 15.0373C31.0795 13.9704 28.7745 13.9993 26.7814 14.4606C24.6721 13.8872 22.4566 13.822 20.3171 14.2703C3.24055 18.9647 12.9227 30.418 6.65471 41.952C7.54435 43.8436 17.1629 54.8644 31.0737 51.9059C31.0737 51.9059 26.3135 40.493 37.0528 35.0143C45.7701 30.5449 52.0612 22.298 39.2076 18.809Z" fill="#8BC53F"/>
<path d="M41.3335 26.3003C41.3346 26.5045 41.2751 26.7044 41.1624 26.8748C41.0497 27.0452 40.889 27.1784 40.7005 27.2576C40.512 27.3368 40.3042 27.3584 40.1034 27.3196C39.9026 27.2809 39.7178 27.1836 39.5723 27.0401C39.4269 26.8965 39.3274 26.7131 39.2864 26.5131C39.2454 26.3131 39.2647 26.1054 39.3419 25.9164C39.4191 25.7273 39.5507 25.5653 39.7201 25.451C39.8895 25.3366 40.0891 25.2749 40.2936 25.2738C40.4294 25.273 40.564 25.299 40.6898 25.3502C40.8155 25.4013 40.93 25.4768 41.0265 25.5721C41.1231 25.6674 41.1999 25.7808 41.2526 25.9057C41.3052 26.0307 41.3327 26.1648 41.3335 26.3003Z" fill="#6B847F"/>
<path d="M26.793 14.4664C28.035 14.5529 32.5352 16.012 33.6964 16.8078C32.7317 14.005 29.4735 13.6359 26.793 14.4664Z" fill="#009345"/>
<path d="M27.9773 21.5483C27.9784 22.4918 27.6992 23.4145 27.1749 24.1996C26.6507 24.9846 25.9049 25.5968 25.0321 25.9587C24.1592 26.3206 23.1984 26.4158 22.2713 26.2325C21.3442 26.0491 20.4923 25.5953 19.8236 24.9285C19.1549 24.2618 18.6993 23.412 18.5145 22.4866C18.3297 21.5613 18.424 20.6021 18.7854 19.7303C19.1468 18.8584 19.7592 18.1132 20.5449 17.5889C21.3307 17.0646 22.2546 16.7847 23.1998 16.7847C23.8269 16.784 24.448 16.9066 25.0276 17.1457C25.6072 17.3847 26.1339 17.7355 26.5776 18.1779C27.0213 18.6203 27.3733 19.1457 27.6135 19.724C27.8537 20.3023 27.9773 20.9223 27.9773 21.5483Z" fill="#6B847F"/>
<path d="M26.5619 21.5887C26.5619 22.2514 26.3651 22.8992 25.9963 23.4502C25.6275 24.0012 25.1033 24.4307 24.49 24.6843C23.8767 24.9379 23.2018 25.0042 22.5508 24.8749C21.8997 24.7456 21.3016 24.4265 20.8322 23.9579C20.3628 23.4893 20.0432 22.8923 19.9137 22.2423C19.7841 21.5924 19.8506 20.9187 20.1047 20.3064C20.3587 19.6942 20.7889 19.1709 21.3408 18.8027C21.8928 18.4345 22.5417 18.238 23.2055 18.238C24.0957 18.238 24.9494 18.591 25.5789 19.2194C26.2083 19.8478 26.5619 20.7 26.5619 21.5887Z" fill="#58595B"/>
<path d="M45.204 28.4053C41.3335 31.1273 36.9373 33.1919 30.6924 33.1919C27.7693 33.1919 27.1801 30.1008 25.2506 31.6117C24.2569 32.3961 20.7388 34.1492 17.9543 34.0166C15.1699 33.8839 10.6466 32.2519 9.38719 26.3119C8.89038 32.2519 8.63041 36.6291 6.40052 41.6464C10.8487 48.7571 21.4609 54.2473 31.091 51.8828C30.057 44.6683 36.3711 37.6037 39.9297 34.0051C41.2815 32.6383 43.858 30.4007 45.2098 28.4226L45.204 28.4053Z" fill="#8BC53F"/>
<path d="M45.048 28.5783C43.8164 29.638 42.4415 30.5194 40.9638 31.1965C39.4906 31.8945 37.9548 32.4525 36.3769 32.8632C34.7912 33.3346 33.1359 33.5297 31.4839 33.4399C29.7965 33.3715 28.1973 32.6691 27.0068 31.4733L27.0587 31.4157C28.407 32.2294 29.9546 32.6545 31.5301 32.644C33.1071 32.692 34.6845 32.5623 36.2325 32.2577C37.7963 31.9319 39.3261 31.4608 40.802 30.8505C42.302 30.2829 43.714 29.5063 44.996 28.5437L45.048 28.5783Z" fill="#58595B"/>
<mask id="mask0_24_465" style="mask-type:alpha" maskUnits="userSpaceOnUse" x="0" y="0" width="54" height="55">
<path d="M53.4014 27.4999C53.4265 32.7722 51.8848 37.9335 48.9713 42.331C46.0578 46.7285 41.9033 50.1647 37.0334 52.205C32.1635 54.2452 26.7968 54.7979 21.6122 53.7931C16.4276 52.7883 11.6579 50.2711 7.9065 46.56C4.15505 42.8489 1.59034 38.1105 0.536729 32.9441C-0.516884 27.7777 -0.0120581 22.4154 1.98736 17.5355C3.98677 12.6555 7.39095 8.47714 11.7693 5.52876C16.1477 2.58037 21.3037 0.994438 26.585 0.971565C33.6646 0.940903 40.4665 3.71827 45.4952 8.69298C50.524 13.6677 53.3678 20.4325 53.4014 27.4999Z" fill="#8DC63F"/>
<path d="M51.3969 27.5056C51.4185 32.3803 49.9918 37.1519 47.2971 41.2171C44.6024 45.2823 40.7607 48.4586 36.2578 50.3443C31.7549 52.23 26.793 52.7404 21.9995 51.8111C17.206 50.8818 12.7962 48.5544 9.32761 45.1232C5.85906 41.692 3.48754 37.3112 2.51291 32.5346C1.53829 27.7579 2.00433 22.8001 3.8521 18.2879C5.69988 13.7757 8.84641 9.91174 12.8938 7.18466C16.9413 4.45757 21.7078 2.98982 26.5908 2.96696C33.1397 2.93783 39.432 5.50662 44.0839 10.1084C48.7358 14.7101 51.3663 20.968 51.3969 27.5056Z" fill="#F9E988"/>
<path d="M27.157 4.54713C28.7275 4.26862 30.335 4.26862 31.9056 4.54713C33.4911 4.79759 35.0238 5.3102 36.4404 6.06386C37.8011 6.88078 39.0849 7.81885 40.2763 8.86662C41.4895 9.84702 42.691 10.8563 43.8407 11.9578C45.0114 13.041 46.0332 14.2743 46.8793 15.6256C47.7496 16.966 48.4629 18.4018 49.0052 19.9047C50.0701 22.9319 50.3697 26.1747 49.8775 29.3453H49.7273C49.2699 26.335 48.4954 23.3813 47.4166 20.5333C46.8984 19.1263 46.2886 17.7547 45.5911 16.4272C44.8629 15.101 44.0606 13.8168 43.1879 12.5806C42.3011 11.3293 41.214 10.2324 39.9701 9.33375C38.6941 8.4973 37.3206 7.81946 35.8801 7.31529C34.4878 6.73859 33.1014 6.19651 31.6456 5.78128C30.1898 5.36605 28.7109 5.04886 27.1685 4.74898L27.157 4.54713Z" fill="#6B847F"/>
<path d="M39.2076 18.809C37.4167 18.2899 35.5566 17.5575 33.6791 16.8136C33.4132 16.0969 32.9358 15.4775 32.31 15.0373C31.0795 13.9704 28.7745 13.9993 26.7814 14.4606C24.6721 13.8872 22.4566 13.822 20.3171 14.2703C3.24055 18.9647 12.9227 30.418 6.65471 41.952C7.54435 43.8436 17.1629 54.8644 31.0737 51.9059C31.0737 51.9059 26.3135 40.493 37.0528 35.0143C45.7701 30.5449 52.0612 22.298 39.2076 18.809Z" fill="#8BC53F"/>
<path d="M41.3335 26.3003C41.3346 26.5045 41.2751 26.7044 41.1624 26.8748C41.0497 27.0452 40.889 27.1784 40.7005 27.2576C40.512 27.3368 40.3042 27.3584 40.1034 27.3196C39.9026 27.2809 39.7178 27.1836 39.5723 27.0401C39.4269 26.8965 39.3274 26.7131 39.2864 26.5131C39.2454 26.3131 39.2647 26.1054 39.3419 25.9164C39.4191 25.7273 39.5507 25.5653 39.7201 25.451C39.8895 25.3366 40.0891 25.2749 40.2936 25.2738C40.4294 25.273 40.564 25.299 40.6898 25.3502C40.8155 25.4013 40.93 25.4768 41.0265 25.5721C41.1231 25.6674 41.1999 25.7808 41.2526 25.9057C41.3052 26.0307 41.3327 26.1648 41.3335 26.3003Z" fill="#6B847F"/>
<path d="M26.793 14.4664C28.035 14.5529 32.5352 16.012 33.6964 16.8078C32.7317 14.005 29.4735 13.6359 26.793 14.4664Z" fill="#009345"/>
<path d="M27.9773 21.5483C27.9784 22.4918 27.6992 23.4145 27.1749 24.1996C26.6507 24.9846 25.9049 25.5968 25.0321 25.9587C24.1592 26.3206 23.1984 26.4158 22.2713 26.2325C21.3442 26.0491 20.4923 25.5953 19.8236 24.9285C19.1549 24.2618 18.6993 23.412 18.5145 22.4866C18.3297 21.5613 18.424 20.6021 18.7854 19.7303C19.1468 18.8584 19.7592 18.1132 20.5449 17.5889C21.3307 17.0646 22.2546 16.7847 23.1998 16.7847C23.8269 16.784 24.448 16.9066 25.0276 17.1457C25.6072 17.3847 26.1339 17.7355 26.5776 18.1779C27.0213 18.6203 27.3733 19.1457 27.6135 19.724C27.8537 20.3023 27.9773 20.9223 27.9773 21.5483Z" fill="#6B847F"/>
<path d="M26.5619 21.5887C26.5619 22.2514 26.3651 22.8992 25.9963 23.4502C25.6275 24.0012 25.1033 24.4307 24.49 24.6843C23.8767 24.9379 23.2018 25.0042 22.5508 24.8749C21.8997 24.7456 21.3016 24.4265 20.8322 23.9579C20.3628 23.4893 20.0432 22.8923 19.9137 22.2423C19.7841 21.5924 19.8506 20.9187 20.1047 20.3064C20.3587 19.6942 20.7889 19.1709 21.3408 18.8027C21.8928 18.4345 22.5417 18.238 23.2055 18.238C24.0957 18.238 24.9494 18.591 25.5789 19.2194C26.2083 19.8478 26.5619 20.7 26.5619 21.5887Z" fill="#58595B"/>
<path d="M45.204 28.4053C41.3335 31.1273 36.9373 33.1919 30.6924 33.1919C27.7693 33.1919 27.1801 30.1008 25.2506 31.6117C24.2569 32.3961 20.7388 34.1492 17.9543 34.0166C15.1699 33.8839 10.6466 32.2519 9.38719 26.3119C8.89038 32.2519 8.63041 36.6291 6.40052 41.6464C10.8487 48.7571 21.4609 54.2473 31.091 51.8828C30.057 44.6683 36.3711 37.6037 39.9297 34.0051C41.2815 32.6383 43.858 30.4007 45.2098 28.4226L45.204 28.4053Z" fill="#8BC53F"/>
<path d="M45.048 28.5783C43.8164 29.638 42.4415 30.5194 40.9638 31.1965C39.4906 31.8945 37.9548 32.4525 36.3769 32.8632C34.7912 33.3346 33.1359 33.5297 31.4839 33.4399C29.7965 33.3715 28.1973 32.6691 27.0068 31.4733L27.0587 31.4157C28.407 32.2294 29.9546 32.6545 31.5301 32.644C33.1071 32.692 34.6845 32.5623 36.2325 32.2577C37.7963 31.9319 39.3261 31.4608 40.802 30.8505C42.302 30.2829 43.714 29.5063 44.996 28.5437L45.048 28.5783Z" fill="#58595B"/>
</mask>
<g mask="url(#mask0_24_465)">
<g style="mix-blend-mode:color">
<rect y="1" width="53" height="53" fill="#6B847F"/>
</g>
</g>
</svg>
