<svg width="187" height="46" viewBox="0 0 187 46" fill="none" xmlns="http://www.w3.org/2000/svg">
<mask id="mask0_23_119" style="mask-type:luminance" maskUnits="userSpaceOnUse" x="0" y="0" width="187" height="46">
<path d="M186.277 0.971313H0V45.7383H186.277V0.971313Z" fill="white"/>
</mask>
<g mask="url(#mask0_23_119)">
<path d="M-0.844727 21.0553L9.13468 16.1534L-0.844727 11.2516V21.0553Z" fill="#6B847F"/>
<path d="M-0.844727 30.8585H29.0934V25.9575L19.1141 21.0552L-0.844727 30.8585Z" fill="#6B847F"/>
<path d="M-0.844727 1.448L19.1141 11.2517L29.0934 6.34985V1.448H-0.844727Z" fill="#6B847F"/>
<path d="M19.1141 11.2493L9.13464 16.1512L19.1141 21.0531L29.0934 25.955V6.34741L19.1141 11.2493Z" fill="#6B847F"/>
<path d="M172.217 19.2145C171.37 19.2211 170.524 19.2736 169.683 19.372C168.133 19.6108 167.28 20.388 167.28 21.734C167.28 22.9024 168.06 23.5374 169.224 23.5374C170.816 23.5374 172.217 22.4757 172.217 20.4083V19.2145ZM168.144 26.2137C165.284 26.2137 163.489 24.4619 163.489 21.7899C163.489 19.3517 165.082 17.8634 167.724 17.2538C169.208 16.9742 170.718 16.85 172.228 16.8829C172.228 14.7901 171.364 14.079 169.151 14.079C167.731 14.1057 166.332 14.4314 165.051 15.0339V12.1335C166.505 11.5448 168.065 11.2476 169.638 11.2598C174.291 11.2598 175.971 13.3272 175.971 17.2233V22.9837H177.807V25.8947H172.636L172.353 24.4416H172.295C171.783 25.0207 171.146 25.4807 170.43 25.7884C169.716 26.0953 168.939 26.2427 168.158 26.2197L168.144 26.2137ZM121.442 19.2145C120.597 19.2211 119.753 19.2736 118.914 19.372C117.362 19.6108 116.509 20.388 116.509 21.734C116.509 22.9024 117.29 23.5374 118.448 23.5374C120.041 23.5374 121.442 22.4757 121.442 20.4083V19.2145ZM117.373 26.2137C114.513 26.2137 112.719 24.4619 112.719 21.7899C112.719 19.3517 114.312 17.8634 116.954 17.2538C118.437 16.9742 119.947 16.85 121.458 16.8829C121.458 14.7901 120.595 14.079 118.387 14.079C116.966 14.1058 115.568 14.4315 114.286 15.0339V12.1335C115.74 11.5451 117.299 11.2481 118.873 11.2598C123.526 11.2598 125.212 13.3272 125.212 17.2233V22.9837H127.042V25.8947H121.872L121.577 24.4416H121.525C121.012 25.0199 120.375 25.4794 119.66 25.7871C118.944 26.0941 118.168 26.2415 117.389 26.2197L117.373 26.2137ZM64.0177 19.2145C63.1694 19.2211 62.3211 19.2736 61.4788 19.372C59.927 19.6108 59.08 20.388 59.08 21.734C59.08 22.9024 59.8655 23.5374 61.0239 23.5374C62.6167 23.5374 64.0177 22.4757 64.0177 20.4083V19.2145ZM59.9427 26.2197C57.084 26.2197 55.2897 24.4669 55.2897 21.7951C55.2897 19.3568 56.8813 17.8685 59.524 17.2589C61.0082 16.9791 62.5178 16.8549 64.0274 16.888C64.0274 14.7953 63.1694 14.0841 60.9515 14.0841C59.5312 14.1103 58.1326 14.4359 56.8511 15.039V12.1335C58.3052 11.5449 59.8643 11.2479 61.4378 11.2598C66.0908 11.2598 67.7766 13.3272 67.7766 17.2233V22.9837H69.612V25.8947H64.4413L64.142 24.4416H64.0901C63.5773 25.0202 62.9401 25.4799 62.2246 25.7871C61.5102 26.0953 60.7343 26.2427 59.9536 26.2197H59.9427ZM139.839 18.6863C139.839 16.0144 138.495 14.2365 136.416 14.2365C134.338 14.2365 133.019 16.0347 133.019 18.6609C133.019 21.2871 134.338 23.1361 136.339 23.1361C138.407 23.1361 139.844 21.3328 139.844 18.6812L139.839 18.6863ZM143.702 18.6812C143.702 23.1361 141.116 26.2137 137.362 26.2137C135.124 26.2137 133.8 25.3355 133.128 24.4364H133.055V30.4658L129.281 31.9895V14.4194H127.368V11.5088H132.761L133.003 13.3882H133.055C133.542 12.6465 134.673 11.2395 137.341 11.2395C141.251 11.2395 143.681 14.1806 143.681 18.6863L143.702 18.6812ZM88.5885 11.2395C87.6835 11.2029 86.7845 11.3787 85.9627 11.7525C85.1422 12.1262 84.423 12.6869 83.8679 13.3882H83.81L83.5674 11.5088H77.937V14.4194H80.0415V25.8947H83.8462V19.245C83.8462 15.6892 85.76 14.3736 87.4047 14.3736C88.9553 14.3736 89.6685 15.354 89.6685 17.5535V25.8947H93.4431V16.7052C93.4431 13.1038 91.773 11.2446 88.568 11.2446L88.5885 11.2395ZM105.853 22.8008C101.97 22.8008 99.6792 20.2305 99.6792 16.0956C99.6792 12.0675 101.97 9.33968 105.527 9.33968C106.388 9.33727 107.248 9.43442 108.086 9.6292V13.6929L111.463 12.3164V7.53129C109.707 6.55097 107.712 6.05761 105.692 6.10401C99.7312 6.10401 95.6622 9.70544 95.6622 16.1465C95.6622 22.242 99.2811 26.2197 105.692 26.2197C107.729 26.2185 109.733 25.7243 111.53 24.7818L110.698 21.6578C109.2 22.416 107.537 22.8081 105.853 22.8008ZM183.598 22.9888V5.20996L179.798 6.73391V25.8947H185.433V22.9837H183.598V22.9888ZM50.0984 20.0679C50.0984 18.2138 48.7228 17.203 46.3492 17.203H42.7304V22.9582H46.4012C49.0438 22.9582 50.1239 21.7899 50.1239 20.0679H50.0984ZM42.7099 14.3178H45.7857C47.9735 14.3178 49.0233 13.3018 49.0233 11.8541C49.0233 10.183 47.9892 9.3143 46.0029 9.3143H42.7099V14.3178ZM54.1156 20.261C54.1156 23.9945 51.1218 25.8742 46.6184 25.8742H38.7954V9.3346H36.4218V6.41889H45.9716C48.5575 6.41889 49.8607 6.76436 50.884 7.39934C51.5417 7.80425 52.0799 8.37241 52.4431 9.04666C52.8063 9.72091 52.9813 10.4772 52.9523 11.2395C52.9523 13.2714 51.66 14.8461 49.5555 15.3997V15.4555C52.3888 15.9331 54.1156 17.7618 54.1156 20.2813V20.261ZM144.777 14.4194H146.845V25.8947H150.636V11.5088H144.777V14.4194ZM146.845 9.01464H150.636V5.4944H146.83V9.01972L146.845 9.01464ZM69.974 14.4194H72.0423V25.8947H75.8482V11.5088H69.974V14.4194ZM72.0423 9.01464H75.8482V5.4944H72.0423V9.01972V9.01464ZM158.583 11.5037H162.44V14.4194H158.583V20.7689C158.583 22.3589 158.934 23.3087 160.496 23.3087C161.077 23.2776 161.655 23.1977 162.222 23.07V25.8536C161.252 26.0953 160.257 26.2306 159.255 26.2548C156.287 26.2548 154.802 24.8479 154.802 21.7493V14.4194H152.734V11.5088H154.802V9.04002L158.583 7.51607V11.5189V11.5037Z" fill="#6B847F"/>
<path d="M44.7588 36.6125L42.3744 44.0341L40.0165 36.6125H38.0061L41.2521 46.0351H43.3723L46.6195 36.6125H44.7588Z" fill="#6B847F"/>
<path d="M48.1749 36.6125V46.0351H54.4775V44.5211H50.0779V41.8495H54.0383V40.3668H50.0779V38.0807H54.3388V36.6125H48.1749Z" fill="#6B847F"/>
<path d="M62.6698 36.6125V43.0989L58.579 36.6125H56.5374V46.0351H58.3365V39.2081L62.6384 46.0351H64.469V36.6125H62.6698Z" fill="#6B847F"/>
<path d="M66.057 36.6125V38.0807H68.8071V46.0351H70.7004V38.0807H73.4299V36.6125H66.057Z" fill="#6B847F"/>
<path d="M80.6894 36.6125H82.5924V42.2966C82.5924 43.5617 82.3957 44.4196 81.7489 45.1313C81.1033 45.8418 80.1983 46.1874 78.7708 46.1874C77.3445 46.1874 76.4286 45.8478 75.7927 45.1313C75.1567 44.4148 74.9347 43.5713 74.9347 42.3123V36.6125H76.8377V42.4029C76.8377 43.2209 76.9306 43.5919 77.2311 43.9266C77.6462 44.3096 78.194 44.5223 78.7635 44.5223C79.3331 44.5223 79.8809 44.3096 80.296 43.9266C80.6013 43.5713 80.6894 43.2004 80.6894 42.4029V36.6125Z" fill="#6B847F"/>
<path d="M89.3861 38.3514C89.0229 38.1206 88.5933 38.0106 88.1613 38.0372H86.817V40.9783H88.1456C88.5824 41.0049 89.0168 40.8949 89.3861 40.6629C89.5647 40.5264 89.7094 40.35 89.8084 40.1506C89.9073 39.95 89.9592 39.7301 89.9592 39.5078C89.9592 39.2842 89.9073 39.0655 89.8084 38.8649C89.7094 38.6643 89.5647 38.4891 89.3861 38.3514ZM90.244 46.0376L88.0056 42.3751H86.8109V46.0376H84.9141V36.615H88.3724C89.2268 36.5643 90.0739 36.7866 90.7871 37.2494C91.1865 37.5648 91.4917 37.9792 91.6691 38.4505C91.8477 38.9217 91.8936 39.4304 91.8006 39.9258C91.7077 40.42 91.4809 40.8804 91.143 41.2574C90.8051 41.6356 90.3695 41.916 89.8832 42.0706L92.4209 46.0328H90.244V46.0376Z" fill="#6B847F"/>
<path d="M94.1007 36.6125V46.0351H100.398V44.5211H96.0037V41.8495H99.9641V40.3668H96.0037V38.0807H100.265V36.6125H94.1007Z" fill="#6B847F"/>
<path d="M105.132 46.168C103.81 46.168 102.538 45.6629 101.586 44.7615L102.537 43.4408C103.235 44.1114 104.15 44.5211 105.123 44.5984C106.255 44.5984 106.829 44.1561 106.829 43.4408C106.829 42.7243 106.121 42.4645 105.738 42.3122C105.356 42.16 104.14 41.7334 103.881 41.6319C103.345 41.4761 102.875 41.1522 102.54 40.7112C102.206 40.2689 102.027 39.7336 102.03 39.1839C102.03 37.9646 102.905 36.4663 105.474 36.4663C106.668 36.4699 107.818 36.9134 108.696 37.7109L107.879 38.9905C107.204 38.3791 106.333 38.019 105.417 37.9743C104.435 37.9743 103.866 38.3296 103.866 39.0316C103.866 39.7324 104.564 39.9813 104.901 40.1288C105.236 40.2762 106.451 40.6918 106.725 40.7994C108.157 41.3069 108.69 42.2216 108.69 43.2728C108.69 44.6238 107.707 46.2139 105.071 46.2139" fill="#6B847F"/>
</g>
</svg>
