<svg width="153" height="23" viewBox="0 0 153 23" fill="none" xmlns="http://www.w3.org/2000/svg">
<mask id="mask0_23_136" style="mask-type:luminance" maskUnits="userSpaceOnUse" x="0" y="0" width="153" height="23">
<path d="M152.881 0.00549316H0.560547V22.7706H152.881V0.00549316Z" fill="white"/>
</mask>
<g mask="url(#mask0_23_136)">
<path d="M103.397 5.42402L103.461 5.42475L103.465 5.42487L103.518 8.39277C103.518 8.69981 103.678 8.95573 103.995 8.95573L113.091 9.00685C113.25 9.00685 113.355 9.1092 113.355 9.26277V12.8448C113.355 12.9949 113.255 13.0961 113.102 13.1004C113.061 13.1253 113.009 13.1391 112.951 13.1391H103.872C103.842 13.1391 103.813 13.1414 103.785 13.1459C103.608 13.2325 103.518 13.4337 103.518 13.6635L103.465 17.0406C103.465 17.0925 103.453 17.1397 103.432 17.1771C103.512 17.3656 103.728 17.4599 103.977 17.4599L107.462 17.5106C107.62 17.5106 107.725 17.6121 107.725 17.7644V21.3229C107.725 21.4752 107.62 21.5767 107.462 21.5767H95.4264C95.2671 21.5767 95.1621 21.4752 95.1621 21.3229V17.7644C95.1621 17.6121 95.2671 17.5106 95.4264 17.5106L98.5408 17.4599C98.8039 17.4599 99.0682 17.3584 99.1213 17.1034V5.20966C99.1213 4.90468 98.857 4.75218 98.5408 4.75218L95.3733 4.70143C95.2152 4.70143 95.109 4.59969 95.109 4.4472V0.889144C95.109 0.736652 95.2152 0.635026 95.3733 0.635026H122.295C122.453 0.635026 122.559 0.787523 122.559 0.889144V7.09031C122.559 7.2428 122.453 7.34454 122.295 7.34454H118.6C118.442 7.34454 118.335 7.2428 118.335 7.09031L118.282 5.31128C118.282 5.0063 118.124 4.80305 117.86 4.75218H103.872C103.555 4.75218 103.397 5.0063 103.397 5.31128V5.42402ZM57.8233 17.3378C57.9295 17.3378 58.0875 17.4393 58.1394 17.5928V21.1682C58.1394 21.3217 58.0344 21.4244 57.8763 21.4244H45.8601C45.702 21.4244 45.597 21.3217 45.597 21.1682V17.5928C45.597 17.4393 45.702 17.3378 45.8601 17.3378L48.0731 17.2871C48.3905 17.2871 48.4955 17.0829 48.3374 16.8267C47.9681 16.3156 46.8085 14.6312 46.4924 14.2735C46.2293 13.9158 45.86 13.8639 45.5439 13.8639C45.2277 13.8639 40.168 13.8639 40.168 13.8639L36.5842 13.9158C36.4261 13.9158 36.3211 14.0173 36.3211 14.1708V16.8267C36.3211 17.1336 36.5841 17.2871 36.9003 17.2871L40.4842 17.3378C40.6423 17.3378 40.7485 17.4393 40.7485 17.5928V21.1682C40.7485 21.3217 40.6423 21.4244 40.4842 21.4244H28.4679C28.3098 21.4244 28.2048 21.3217 28.2048 21.1682V17.5928C28.2048 17.4393 28.3098 17.3378 28.4679 17.3378L31.4726 17.2871C31.7887 17.2871 32.0518 17.1336 32.0518 16.8267V5.23238C32.0518 4.92594 31.7887 4.7726 31.4726 4.7726L28.416 4.72161C28.2579 4.72161 28.1517 4.61939 28.1517 4.46617V0.737494C28.1517 0.584277 28.2579 0.482178 28.416 0.482178H48.4423C52.2374 0.482178 55.294 3.49576 55.294 7.17332C55.294 9.62503 53.9763 11.7192 51.9732 12.8939C51.394 13.0983 51.3409 13.4558 51.552 13.8131C51.7101 14.0693 53.239 16.4183 53.5551 16.9294C53.7651 17.2351 53.9232 17.2871 54.2393 17.2871L57.8233 17.3378ZM48.3374 9.67614C49.7601 9.67614 50.9197 8.55239 50.9197 7.17332C50.9197 5.79425 49.7601 4.6705 48.3374 4.6705H47.9681L36.5322 4.72161C36.3742 4.72161 36.268 4.82371 36.268 4.97693V9.36958C36.268 9.5228 36.3742 9.62503 36.5322 9.62503L47.9681 9.67614H48.3374ZM20.2611 21.5767H7.06472C4.15054 21.5767 1.28826 19.0802 0.0694962 16.0232C-0.354055 14.9018 -0.566406 13.73 -0.566406 12.558V9.75565C-0.566406 8.58369 -0.354055 7.41173 0.0694962 6.29087C1.28826 3.23367 3.99126 0.736895 7.06472 0.736895L25.0312 0.635026C25.1905 0.635026 25.2955 0.736889 25.2955 0.889743V7.10602C25.2955 7.25887 25.1905 7.36085 25.0312 7.36085H21.1625C21.0033 7.36085 20.8971 7.25887 20.8971 7.10602L20.844 5.42462C20.844 5.11891 20.6847 4.86407 20.3673 4.86407L7.64752 4.91506C6.26947 4.91506 4.83959 6.18889 4.15057 7.81942C3.8851 8.48182 3.77885 9.09324 3.77885 9.75565V12.609C3.77885 13.2204 3.8851 13.8832 4.15057 14.5454C4.7865 16.1754 6.21758 17.5517 7.64752 17.5517L20.2611 17.5009C20.5797 17.5009 20.844 17.246 20.844 16.9403L20.8971 15.1568C20.8971 15.0033 21.0033 14.9018 21.1625 14.9018H25.0312C25.1905 14.9018 25.2955 15.0033 25.2955 15.1568V21.2709C25.2955 21.4244 25.1905 21.5259 25.0312 21.5259H21.2156L20.2611 21.5767ZM92.8223 17.5106C92.9804 17.5106 93.0854 17.6121 93.0323 17.7644V21.3229C93.0323 21.4752 92.9273 21.5767 92.7692 21.5767H80.7348C80.5768 21.5767 80.4718 21.4752 80.4718 21.3229V17.7644C80.4718 17.6121 80.5768 17.5106 80.7348 17.5106L83.6912 17.4599C84.0073 17.4599 84.2716 17.3076 84.2716 17.0019V14.3085C84.2716 14.0028 84.1136 13.7491 83.7962 13.7491H69.9156C69.5982 13.7491 69.4401 14.0028 69.4401 14.3085V17.0019C69.4401 17.3076 69.7044 17.4599 70.0205 17.4599L72.977 17.5106C73.135 17.5106 73.24 17.6121 73.24 17.7644V21.3229C73.24 21.4752 73.135 21.5767 72.977 21.5767H60.9425C60.7845 21.5767 60.6783 21.4752 60.6783 21.3229V17.7644C60.6783 17.6121 60.7845 17.5106 60.9425 17.5106L64.6375 17.4599C64.9536 17.4599 65.2179 17.3076 65.2179 17.0019V9.6318C65.2179 9.6318 65.2179 8.5136 65.4291 7.59865C66.1145 4.19309 69.387 0.635026 72.8708 0.635026H80.8929C84.3247 0.635026 87.5961 4.19309 88.3358 7.59865C88.5469 8.5136 88.547 9.6318 88.547 9.6318V17.0019C88.547 17.3076 88.81 17.4599 89.1274 17.4599L92.8223 17.5106ZM83.6912 9.58105C84.1135 9.58105 84.3247 9.42856 84.3247 8.97108C84.2716 8.56448 84.1655 8.05612 83.7431 7.19205C82.8996 5.41302 81.2634 4.70143 79.9963 4.70143H73.8204C72.5546 4.70143 70.9183 5.41302 70.0736 7.19205C69.6513 8.05612 69.5463 8.61523 69.4932 8.97108C69.4401 9.42856 69.6513 9.58105 70.0736 9.58105H83.6912ZM151.382 0.635026C151.541 0.635026 151.648 0.787523 151.754 0.889144V7.09031C151.754 7.2428 151.648 7.34454 151.488 7.34454H147.779C147.62 7.34454 147.513 7.2428 147.513 7.09031L147.46 5.31128C147.46 5.0063 147.302 4.80305 147.037 4.75218H141.049C140.731 4.75218 140.571 5.0063 140.571 5.31128V17.0019C140.571 17.3076 140.837 17.4599 141.154 17.4599L144.652 17.5106C144.812 17.5106 144.917 17.6121 144.917 17.7644V21.3229C144.917 21.4752 144.812 21.5767 144.652 21.5767H132.304C132.146 21.5767 132.04 21.4752 132.04 21.3229V17.7644C132.04 17.6121 132.146 17.5106 132.304 17.5106L135.643 17.4599C135.909 17.4599 136.173 17.3584 136.226 17.1034V5.20966C136.226 4.90468 135.962 4.75218 135.643 4.75218H129.656C129.39 4.80305 129.231 5.0063 129.231 5.31128L129.178 7.09031C129.178 7.2428 129.073 7.34454 128.913 7.34454H125.204C125.045 7.34454 124.939 7.2428 124.939 7.09031V0.889144C124.939 0.736652 125.045 0.635026 125.204 0.635026H151.382Z" fill="#6B847F"/>
<path d="M103.397 5.42402L103.461 5.42475L103.465 5.42487L103.518 8.39277C103.518 8.69981 103.678 8.95573 103.995 8.95573L113.091 9.00685C113.25 9.00685 113.355 9.1092 113.355 9.26277V12.8448C113.355 12.9949 113.255 13.0961 113.102 13.1004C113.061 13.1253 113.009 13.1391 112.951 13.1391H103.872C103.842 13.1391 103.813 13.1414 103.785 13.1459C103.608 13.2325 103.518 13.4337 103.518 13.6635L103.465 17.0406C103.465 17.0925 103.453 17.1397 103.432 17.1771C103.512 17.3656 103.728 17.4599 103.977 17.4599L107.462 17.5106C107.62 17.5106 107.725 17.6121 107.725 17.7644V21.3229C107.725 21.4752 107.62 21.5767 107.462 21.5767H95.4264C95.2671 21.5767 95.1621 21.4752 95.1621 21.3229V17.7644C95.1621 17.6121 95.2671 17.5106 95.4264 17.5106L98.5408 17.4599C98.8039 17.4599 99.0682 17.3584 99.1213 17.1034V5.20966C99.1213 4.90468 98.857 4.75218 98.5408 4.75218L95.3733 4.70143C95.2152 4.70143 95.109 4.59969 95.109 4.4472V0.889144C95.109 0.736652 95.2152 0.635026 95.3733 0.635026H122.295C122.453 0.635026 122.559 0.787523 122.559 0.889144V7.09031C122.559 7.2428 122.453 7.34454 122.295 7.34454H118.6C118.442 7.34454 118.335 7.2428 118.335 7.09031L118.282 5.31128C118.282 5.0063 118.124 4.80305 117.86 4.75218H103.872C103.555 4.75218 103.397 5.0063 103.397 5.31128V5.42402ZM57.8233 17.3378C57.9295 17.3378 58.0875 17.4393 58.1394 17.5928V21.1682C58.1394 21.3217 58.0344 21.4244 57.8763 21.4244H45.8601C45.702 21.4244 45.597 21.3217 45.597 21.1682V17.5928C45.597 17.4393 45.702 17.3378 45.8601 17.3378L48.0731 17.2871C48.3905 17.2871 48.4955 17.0829 48.3374 16.8267C47.9681 16.3156 46.8085 14.6312 46.4924 14.2735C46.2293 13.9158 45.86 13.8639 45.5439 13.8639C45.2277 13.8639 40.168 13.8639 40.168 13.8639L36.5842 13.9158C36.4261 13.9158 36.3211 14.0173 36.3211 14.1708V16.8267C36.3211 17.1336 36.5841 17.2871 36.9003 17.2871L40.4842 17.3378C40.6423 17.3378 40.7485 17.4393 40.7485 17.5928V21.1682C40.7485 21.3217 40.6423 21.4244 40.4842 21.4244H28.4679C28.3098 21.4244 28.2048 21.3217 28.2048 21.1682V17.5928C28.2048 17.4393 28.3098 17.3378 28.4679 17.3378L31.4726 17.2871C31.7887 17.2871 32.0518 17.1336 32.0518 16.8267V5.23238C32.0518 4.92594 31.7887 4.7726 31.4726 4.7726L28.416 4.72161C28.2579 4.72161 28.1517 4.61939 28.1517 4.46617V0.737494C28.1517 0.584277 28.2579 0.482178 28.416 0.482178H48.4423C52.2374 0.482178 55.294 3.49576 55.294 7.17332C55.294 9.62503 53.9763 11.7192 51.9732 12.8939C51.394 13.0983 51.3409 13.4558 51.552 13.8131C51.7101 14.0693 53.239 16.4183 53.5551 16.9294C53.7651 17.2351 53.9232 17.2871 54.2393 17.2871L57.8233 17.3378ZM48.3374 9.67614C49.7601 9.67614 50.9197 8.55239 50.9197 7.17332C50.9197 5.79425 49.7601 4.6705 48.3374 4.6705H47.9681L36.5322 4.72161C36.3742 4.72161 36.268 4.82371 36.268 4.97693V9.36958C36.268 9.5228 36.3742 9.62503 36.5322 9.62503L47.9681 9.67614H48.3374ZM20.2611 21.5767H7.06472C4.15054 21.5767 1.28826 19.0802 0.0694962 16.0232C-0.354055 14.9018 -0.566406 13.73 -0.566406 12.558V9.75565C-0.566406 8.58369 -0.354055 7.41173 0.0694962 6.29087C1.28826 3.23367 3.99126 0.736895 7.06472 0.736895L25.0312 0.635026C25.1905 0.635026 25.2955 0.736889 25.2955 0.889743V7.10602C25.2955 7.25887 25.1905 7.36085 25.0312 7.36085H21.1625C21.0033 7.36085 20.8971 7.25887 20.8971 7.10602L20.844 5.42462C20.844 5.11891 20.6847 4.86407 20.3673 4.86407L7.64752 4.91506C6.26947 4.91506 4.83959 6.18889 4.15057 7.81942C3.8851 8.48182 3.77885 9.09324 3.77885 9.75565V12.609C3.77885 13.2204 3.8851 13.8832 4.15057 14.5454C4.7865 16.1754 6.21758 17.5517 7.64752 17.5517L20.2611 17.5009C20.5797 17.5009 20.844 17.246 20.844 16.9403L20.8971 15.1568C20.8971 15.0033 21.0033 14.9018 21.1625 14.9018H25.0312C25.1905 14.9018 25.2955 15.0033 25.2955 15.1568V21.2709C25.2955 21.4244 25.1905 21.5259 25.0312 21.5259H21.2156L20.2611 21.5767ZM92.8223 17.5106C92.9804 17.5106 93.0854 17.6121 93.0323 17.7644V21.3229C93.0323 21.4752 92.9273 21.5767 92.7692 21.5767H80.7348C80.5768 21.5767 80.4718 21.4752 80.4718 21.3229V17.7644C80.4718 17.6121 80.5768 17.5106 80.7348 17.5106L83.6912 17.4599C84.0073 17.4599 84.2716 17.3076 84.2716 17.0019V14.3085C84.2716 14.0028 84.1136 13.7491 83.7962 13.7491H69.9156C69.5982 13.7491 69.4401 14.0028 69.4401 14.3085V17.0019C69.4401 17.3076 69.7044 17.4599 70.0205 17.4599L72.977 17.5106C73.135 17.5106 73.24 17.6121 73.24 17.7644V21.3229C73.24 21.4752 73.135 21.5767 72.977 21.5767H60.9425C60.7845 21.5767 60.6783 21.4752 60.6783 21.3229V17.7644C60.6783 17.6121 60.7845 17.5106 60.9425 17.5106L64.6375 17.4599C64.9536 17.4599 65.2179 17.3076 65.2179 17.0019V9.6318C65.2179 9.6318 65.2179 8.5136 65.4291 7.59865C66.1145 4.19309 69.387 0.635026 72.8708 0.635026H80.8929C84.3247 0.635026 87.5961 4.19309 88.3358 7.59865C88.5469 8.5136 88.547 9.6318 88.547 9.6318V17.0019C88.547 17.3076 88.81 17.4599 89.1274 17.4599L92.8223 17.5106ZM83.6912 9.58105C84.1135 9.58105 84.3247 9.42856 84.3247 8.97108C84.2716 8.56448 84.1655 8.05612 83.7431 7.19205C82.8996 5.41302 81.2634 4.70143 79.9963 4.70143H73.8204C72.5546 4.70143 70.9183 5.41302 70.0736 7.19205C69.6513 8.05612 69.5463 8.61523 69.4932 8.97108C69.4401 9.42856 69.6513 9.58105 70.0736 9.58105H83.6912ZM151.382 0.635026C151.541 0.635026 151.648 0.787523 151.754 0.889144V7.09031C151.754 7.2428 151.648 7.34454 151.488 7.34454H147.779C147.62 7.34454 147.513 7.2428 147.513 7.09031L147.46 5.31128C147.46 5.0063 147.302 4.80305 147.037 4.75218H141.049C140.731 4.75218 140.571 5.0063 140.571 5.31128V17.0019C140.571 17.3076 140.837 17.4599 141.154 17.4599L144.652 17.5106C144.812 17.5106 144.917 17.6121 144.917 17.7644V21.3229C144.917 21.4752 144.812 21.5767 144.652 21.5767H132.304C132.146 21.5767 132.04 21.4752 132.04 21.3229V17.7644C132.04 17.6121 132.146 17.5106 132.304 17.5106L135.643 17.4599C135.909 17.4599 136.173 17.3584 136.226 17.1034V5.20966C136.226 4.90468 135.962 4.75218 135.643 4.75218H129.656C129.39 4.80305 129.231 5.0063 129.231 5.31128L129.178 7.09031C129.178 7.2428 129.073 7.34454 128.913 7.34454H125.204C125.045 7.34454 124.939 7.2428 124.939 7.09031V0.889144C124.939 0.736652 125.045 0.635026 125.204 0.635026H151.382Z" fill="#6B847F"/>
</g>
</svg>
