<svg width="168" height="26" viewBox="0 0 168 26" fill="none" xmlns="http://www.w3.org/2000/svg">
<g clip-path="url(#clip0_15_5)">
<path d="M11.6735 0.916023C10.8925 0.942407 10.1305 1.04226 9.39391 1.21V11.204C9.39391 11.3517 9.31525 11.4884 9.18724 11.5622L2.35843 15.512C1.30557 12.1214 2.5173 7.4223 6.28738 4.77036V9.64561L5.46049 10.1184V6.55446C3.49135 8.57819 2.55234 11.4056 2.9291 14.2222L8.56699 10.965V1.42972C1.25258 3.6545 -2.13277 12.024 1.41918 18.6841L11.6736 12.7598L11.6735 0.916023Z" fill="white"/>
<path d="M1.8369 19.3985C2.25017 20.0618 2.71759 20.6726 3.23116 21.227L11.8802 16.2299C12.0081 16.156 12.1658 16.156 12.2937 16.2299L19.1266 20.173C16.7185 22.7807 12.0458 24.0801 7.86588 22.1388L12.0852 19.7013L12.9076 20.1815L9.82332 21.9634C12.5594 22.6581 15.4757 22.0581 17.725 20.3231L12.087 17.0659L3.83492 21.8336C9.41752 27.0599 18.3535 25.8089 22.3412 19.4007L12.0871 13.4763L1.8369 19.3985Z" fill="white"/>
<path d="M22.7508 18.6815C23.1183 17.9918 23.4129 17.2813 23.6363 16.5592L14.9868 11.5623C14.859 11.4885 14.7802 11.3518 14.7802 11.204L14.7763 3.31111C18.2371 4.09399 21.6979 7.49377 22.1081 12.0869L17.8889 9.64908L17.8931 8.69629L20.9775 10.4782C20.2107 7.75978 18.2331 5.53237 15.607 4.45063V10.9651L23.8592 15.7326C25.5908 8.28154 20.0405 1.16309 12.5005 0.911194L12.5004 12.7596L22.7508 18.6815Z" fill="white"/>
</g>
<path d="M37.696 19.6307V5.97745H42.0101C43.0909 5.97745 44.0486 6.12915 44.8829 6.43256C45.7173 6.72964 46.4221 7.16895 46.9973 7.75047C47.5725 8.332 48.0086 9.04627 48.3057 9.89327C48.6028 10.7403 48.7513 11.7105 48.7513 12.8041C48.7513 13.8976 48.6028 14.8679 48.3057 15.7149C48.0086 16.5619 47.5725 17.2761 46.9973 17.8577C46.4221 18.4392 45.7173 18.8817 44.8829 19.1851C44.0486 19.4821 43.0909 19.6307 42.0101 19.6307H37.696ZM40 17.4879H41.773C44.8197 17.4879 46.3431 15.9266 46.3431 12.8041C46.3431 9.68152 44.8197 8.12025 41.773 8.12025H40V17.4879Z" fill="white"/>
<path d="M55.1546 17.8103C55.7424 17.8103 56.2291 17.6902 56.6147 17.45C57.0003 17.2034 57.3068 16.8368 57.5344 16.3501L59.791 16.9949C59.3928 17.9304 58.7923 18.6509 57.9895 19.1566C57.1867 19.6623 56.2418 19.9151 55.1546 19.9151C54.3897 19.9151 53.6913 19.7856 53.0592 19.5264C52.4334 19.2609 51.8961 18.8911 51.4473 18.4171C51.0049 17.9367 50.6604 17.3646 50.4139 16.7009C50.1673 16.0372 50.0441 15.3072 50.0441 14.5107C50.0441 13.7016 50.1673 12.9653 50.4139 12.3016C50.6667 11.6379 51.0175 11.069 51.4663 10.5949C51.9151 10.1208 52.4492 9.75421 53.0686 9.49505C53.6944 9.2359 54.3834 9.10632 55.1356 9.10632C55.951 9.10632 56.6684 9.24854 57.2879 9.53298C57.9137 9.81742 58.432 10.222 58.8428 10.7466C59.2537 11.2712 59.5508 11.9065 59.7341 12.6524C59.9174 13.3919 59.9743 14.2231 59.9047 15.146H52.4998C52.6009 15.993 52.879 16.6504 53.3341 17.1181C53.7956 17.5795 54.4024 17.8103 55.1546 17.8103ZM57.5818 13.4204C57.5249 12.6935 57.2816 12.1309 56.8517 11.7327C56.4282 11.3344 55.8562 11.1353 55.1356 11.1353C54.4403 11.1353 53.8714 11.3344 53.4289 11.7327C52.9928 12.1309 52.702 12.6935 52.5567 13.4204H57.5818Z" fill="white"/>
<path d="M61.641 19.6307V5.97745H70.0131V8.12025H63.9355V12.1024H68.8659V14.2452H63.9355V19.6307H61.641Z" fill="white"/>
<path d="M71.5254 7.83581V5.74041H73.8104V7.83581H71.5254ZM71.5254 19.6307V9.39076H73.8104V19.6307H71.5254Z" fill="white"/>
<path d="M76.2713 19.6307V5.97745H78.5658L82.9747 15.1649L87.3835 5.97745H89.678V19.6307H87.3835V10.5665L83.9418 17.7534H82.0076L78.5753 10.5665V19.6307H76.2713Z" fill="white"/>
<path d="M96.4891 17.8103C97.0769 17.8103 97.5637 17.6902 97.9492 17.45C98.3348 17.2034 98.6414 16.8368 98.8689 16.3501L101.125 16.9949C100.727 17.9304 100.127 18.6509 99.324 19.1566C98.5213 19.6623 97.5763 19.9151 96.4891 19.9151C95.7243 19.9151 95.0258 19.7856 94.3937 19.5264C93.7679 19.2609 93.2306 18.8911 92.7819 18.4171C92.3394 17.9367 91.9949 17.3646 91.7484 16.7009C91.5019 16.0372 91.3786 15.3072 91.3786 14.5107C91.3786 13.7016 91.5019 12.9653 91.7484 12.3016C92.0012 11.6379 92.352 11.069 92.8008 10.5949C93.2496 10.1208 93.7837 9.75421 94.4032 9.49505C95.0289 9.2359 95.7179 9.10632 96.4701 9.10632C97.2855 9.10632 98.003 9.24854 98.6224 9.53298C99.2482 9.81742 99.7665 10.222 100.177 10.7466C100.588 11.2712 100.885 11.9065 101.069 12.6524C101.252 13.3919 101.309 14.2231 101.239 15.146H93.8343C93.9354 15.993 94.2135 16.6504 94.6687 17.1181C95.1301 17.5795 95.7369 17.8103 96.4891 17.8103ZM98.9163 13.4204C98.8594 12.6935 98.6161 12.1309 98.1863 11.7327C97.7628 11.3344 97.1907 11.1353 96.4701 11.1353C95.7748 11.1353 95.2059 11.3344 94.7635 11.7327C94.3273 12.1309 94.0366 12.6935 93.8912 13.4204H98.9163Z" fill="white"/>
<path d="M108.832 13.5152C108.832 13.1738 108.794 12.8641 108.718 12.586C108.643 12.3016 108.526 12.0614 108.368 11.8654C108.21 11.6695 108.007 11.5178 107.761 11.4103C107.521 11.3028 107.236 11.2491 106.908 11.2491C106.579 11.2491 106.291 11.3028 106.045 11.4103C105.798 11.5178 105.596 11.6695 105.438 11.8654C105.28 12.0614 105.16 12.3016 105.078 12.586C105.002 12.8641 104.964 13.1738 104.964 13.5152V19.6307H102.679V9.39076H104.964V10.6233C105.071 10.4084 105.201 10.2093 105.353 10.026C105.504 9.84271 105.681 9.68468 105.884 9.55194C106.092 9.41288 106.329 9.30543 106.595 9.22957C106.86 9.1474 107.157 9.10632 107.486 9.10632C109.022 9.10632 110.071 9.64676 110.634 10.7276C110.773 10.4938 110.937 10.2789 111.127 10.0829C111.316 9.88063 111.531 9.70997 111.771 9.5709C112.012 9.42552 112.274 9.31175 112.558 9.22957C112.849 9.1474 113.162 9.10632 113.497 9.10632C114.723 9.10632 115.659 9.43817 116.304 10.1019C116.955 10.7592 117.28 11.739 117.28 13.0411V19.6307H114.995V13.5152C114.995 13.1738 114.957 12.8641 114.881 12.586C114.806 12.3016 114.689 12.0614 114.531 11.8654C114.373 11.6695 114.173 11.5178 113.933 11.4103C113.693 11.3028 113.405 11.2491 113.07 11.2491C112.413 11.2491 111.923 11.4545 111.601 11.8654C111.285 12.2763 111.127 12.8262 111.127 13.5152L111.108 13.5057V19.6307H108.832V13.5152Z" fill="white"/>
<path d="M123.916 17.8103C124.503 17.8103 124.99 17.6902 125.376 17.45C125.761 17.2034 126.068 16.8368 126.295 16.3501L128.552 16.9949C128.154 17.9304 127.553 18.6509 126.751 19.1566C125.948 19.6623 125.003 19.9151 123.916 19.9151C123.151 19.9151 122.452 19.7856 121.82 19.5264C121.194 19.2609 120.657 18.8911 120.208 18.4171C119.766 17.9367 119.421 17.3646 119.175 16.7009C118.928 16.0372 118.805 15.3072 118.805 14.5107C118.805 13.7016 118.928 12.9653 119.175 12.3016C119.428 11.6379 119.779 11.069 120.227 10.5949C120.676 10.1208 121.21 9.75421 121.83 9.49505C122.455 9.2359 123.144 9.10632 123.897 9.10632C124.712 9.10632 125.429 9.24854 126.049 9.53298C126.675 9.81742 127.193 10.222 127.604 10.7466C128.015 11.2712 128.312 11.9065 128.495 12.6524C128.678 13.3919 128.735 14.2231 128.666 15.146H121.261C121.362 15.993 121.64 16.6504 122.095 17.1181C122.557 17.5795 123.163 17.8103 123.916 17.8103ZM126.343 13.4204C126.286 12.6935 126.043 12.1309 125.613 11.7327C125.189 11.3344 124.617 11.1353 123.897 11.1353C123.201 11.1353 122.632 11.3344 122.19 11.7327C121.754 12.1309 121.463 12.6935 121.318 13.4204H126.343Z" fill="white"/>
<path d="M144.893 19.6307H142.485L141.518 16.6725H136.189L135.222 19.6307H132.814L137.337 5.97745H140.38L144.893 19.6307ZM140.826 14.5392L138.854 8.48054L136.882 14.5392H140.826Z" fill="white"/>
<path d="M146.162 24.1818V9.39076H148.447V10.7656C148.757 10.2409 149.168 9.83323 149.68 9.54246C150.192 9.2517 150.83 9.10632 151.595 9.10632C152.271 9.10632 152.891 9.23906 153.453 9.50454C154.022 9.77002 154.512 10.143 154.923 10.6233C155.334 11.0974 155.653 11.6663 155.88 12.33C156.114 12.9937 156.231 13.7206 156.231 14.5107C156.231 15.3072 156.114 16.0372 155.88 16.7009C155.653 17.3646 155.33 17.9367 154.913 18.4171C154.502 18.8911 154.013 19.2609 153.444 19.5264C152.881 19.7856 152.265 19.9151 151.595 19.9151C150.83 19.9151 150.192 19.7697 149.68 19.479C149.168 19.1819 148.757 18.7742 148.447 18.2559V24.1818H146.162ZM151.121 17.7723C151.576 17.7723 151.971 17.6933 152.306 17.5353C152.641 17.3773 152.919 17.156 153.14 16.8716C153.368 16.5808 153.535 16.2363 153.643 15.8381C153.757 15.4336 153.813 14.9911 153.813 14.5107C153.813 14.0177 153.757 13.5721 153.643 13.1738C153.529 12.7693 153.358 12.4248 153.131 12.1404C152.91 11.8559 152.631 11.6379 152.296 11.4862C151.961 11.3281 151.569 11.2491 151.121 11.2491C150.659 11.2491 150.261 11.3281 149.926 11.4862C149.591 11.6442 149.313 11.8686 149.092 12.1593C148.877 12.4438 148.716 12.7851 148.608 13.1833C148.501 13.5815 148.447 14.024 148.447 14.5107C148.447 15.0101 148.504 15.462 148.618 15.8666C148.731 16.2648 148.899 16.6061 149.12 16.8906C149.348 17.175 149.626 17.3931 149.954 17.5448C150.29 17.6965 150.678 17.7723 151.121 17.7723Z" fill="white"/>
<path d="M157.931 24.1818V9.39076H160.216V10.7656C160.525 10.2409 160.936 9.83323 161.448 9.54246C161.96 9.2517 162.599 9.10632 163.364 9.10632C164.04 9.10632 164.659 9.23906 165.222 9.50454C165.791 9.77002 166.281 10.143 166.692 10.6233C167.102 11.0974 167.422 11.6663 167.649 12.33C167.883 12.9937 168 13.7206 168 14.5107C168 15.3072 167.883 16.0372 167.649 16.7009C167.422 17.3646 167.099 17.9367 166.682 18.4171C166.271 18.8911 165.781 19.2609 165.212 19.5264C164.65 19.7856 164.034 19.9151 163.364 19.9151C162.599 19.9151 161.96 19.7697 161.448 19.479C160.936 19.1819 160.525 18.7742 160.216 18.2559V24.1818H157.931ZM162.89 17.7723C163.345 17.7723 163.74 17.6933 164.075 17.5353C164.41 17.3773 164.688 17.156 164.909 16.8716C165.137 16.5808 165.304 16.2363 165.412 15.8381C165.525 15.4336 165.582 14.9911 165.582 14.5107C165.582 14.0177 165.525 13.5721 165.412 13.1738C165.298 12.7693 165.127 12.4248 164.9 12.1404C164.678 11.8559 164.4 11.6379 164.065 11.4862C163.73 11.3281 163.338 11.2491 162.89 11.2491C162.428 11.2491 162.03 11.3281 161.695 11.4862C161.36 11.6442 161.082 11.8686 160.86 12.1593C160.646 12.4438 160.484 12.7851 160.377 13.1833C160.269 13.5815 160.216 14.024 160.216 14.5107C160.216 15.0101 160.273 15.462 160.386 15.8666C160.5 16.2648 160.668 16.6061 160.889 16.8906C161.116 17.175 161.395 17.3931 161.723 17.5448C162.058 17.6965 162.447 17.7723 162.89 17.7723Z" fill="white"/>
<defs>
<clipPath id="clip0_15_5">
<rect width="24.1776" height="24.1776" fill="white" transform="translate(0 0.911194)"/>
</clipPath>
</defs>
</svg>
