<?xml version="1.0" encoding="utf-8"?><svg viewBox="0 0 128 129" xmlns="http://www.w3.org/2000/svg" xmlns:xlink="http://www.w3.org/1999/xlink"><style>:root>svg{display:none}:root>svg:target{display:block}</style><svg viewBox="0 0 28 28" id="eth" xmlns="http://www.w3.org/2000/svg"><g clip-path="url(#aclip0_37_71)"><path d="M14 28c7.732 0 14-6.268 14-14S21.732 0 14 0 0 6.268 0 14s6.268 14 14 14z"/><path d="M14.436 3.5v7.761l6.56 2.932L14.436 3.5z" fill-opacity=".602"/><path d="M14.436 3.5L7.875 14.193l6.56-2.932V3.5z"/><path d="M14.436 19.222v5.274L21 15.414l-6.564 3.808z" fill-opacity=".602"/><path d="M14.436 24.496V19.22l-6.561-3.807 6.56 9.082z"/><path d="M14.436 18.001l6.56-3.809-6.56-2.93v6.74z" fill-opacity=".2"/><path d="M7.875 14.192l6.56 3.81v-6.74l-6.56 2.93z" fill-opacity=".602"/></g><defs><clipPath id="aclip0_37_71"><path d="M0 0h28v28H0z"/></clipPath></defs></svg><svg viewBox="0 0 128 129" id="favicon" xmlns="http://www.w3.org/2000/svg"><path d="M61.801.114c-4.134.14-8.169.668-12.068 1.557v52.91c0 .781-.417 1.505-1.094 1.896l-36.153 20.91c-5.574-17.95.841-42.828 20.8-56.867v25.81l-4.377 2.503V29.965C18.484 40.679 13.513 55.648 15.507 70.559l29.848-17.244V2.834C6.631 14.612-11.291 58.92 7.513 94.18l54.289-31.364V.114zM9.725 97.963a64.134 64.134 0 007.381 9.681l45.79-26.455a2.187 2.187 0 012.189 0l36.174 20.875c-12.749 13.805-37.486 20.685-59.616 10.407l22.338-12.904 4.354 2.542-16.329 9.434c14.485 3.678 29.925.501 41.833-8.685L63.99 85.614l-43.687 25.241c29.555 27.669 76.863 21.046 97.975-12.88L63.991 66.61 9.725 97.963zM120.446 94.168a64.277 64.277 0 004.688-11.236L79.343 56.477a2.19 2.19 0 01-1.094-1.896l-.02-41.787c18.321 4.145 36.643 22.144 38.815 46.46L94.707 46.35l.022-5.045 16.329 9.434a48.893 48.893 0 00-28.432-31.91v34.488l43.689 25.24C135.482 39.109 106.098 1.422 66.18.089v62.727l54.266 31.352z"/></svg><svg viewBox="0 0 52 53" id="holder" xmlns="http://www.w3.org/2000/svg"><rect y=".5" width="52" height="52" rx="10"/><rect x=".5" y="1" width="51" height="51" rx="9.5"/><path d="M33.184 22.305l-2.965-2.967c-2.027-2.03-3.04-3.043-4.129-2.803-1.088.24-1.581 1.587-2.568 4.28l-.668 1.823c-.263.718-.395 1.077-.632 1.355a2.033 2.033 0 01-.36.332c-.296.213-.664.314-1.4.517-1.66.458-2.491.687-2.804 1.23a1.529 1.529 0 00-.204.773c.004.627.613 1.236 1.83 2.455l1.415 1.416-4.476 4.48a.764.764 0 001.08 1.08l4.475-4.48 1.466 1.468c1.226 1.226 1.839 1.84 2.47 1.84.265 0 .526-.068.757-.2.548-.313.778-1.149 1.238-2.822.203-.735.304-1.102.516-1.399.093-.129.201-.247.322-.352.275-.238.632-.372 1.345-.64l1.844-.693c2.664-1 3.996-1.501 4.23-2.587.235-1.085-.77-2.092-2.782-4.106z"/></svg><svg viewBox="0 0 52 53" id="search" xmlns="http://www.w3.org/2000/svg"><rect y=".5" width="52" height="52" rx="10"/><rect x=".5" y="1" width="51" height="51" rx="9.5"/><path d="M35 35.5l-6-6m2-5a7 7 0 11-14 0 7 7 0 0114 0z"/></svg><svg stroke-width="2" stroke-linecap="round" stroke-linejoin="round" class="elucide elucide-settings2 ew-4 eh-4 etext-text-brand" viewBox="0 0 24 24" id="settings" xmlns="http://www.w3.org/2000/svg"><path d="M20 7h-9M14 17H5"/><circle cx="17" cy="17" r="3"/><circle cx="7" cy="7" r="3"/></svg><svg viewBox="0 0 25 22" id="solana" xmlns="http://www.w3.org/2000/svg"><g clip-path="url(#fclip0_37_129)"><path d="M24.871 17.283l-4.127 4.311a.96.96 0 01-.7.297H.478a.488.488 0 01-.263-.076.456.456 0 01-.088-.709l4.13-4.312a.958.958 0 01.7-.297H24.52a.473.473 0 01.44.28.457.457 0 01-.09.506zM20.744 8.6a.959.959 0 00-.7-.297H.478a.488.488 0 00-.263.077.456.456 0 00-.088.709l4.13 4.311a.958.958 0 00.7.297H24.52a.473.473 0 00.44-.28.457.457 0 00-.09-.505L20.744 8.6zM.48 5.503h19.564a.98.98 0 00.701-.297L24.871.894a.463.463 0 00.09-.504.472.472 0 00-.177-.205.489.489 0 00-.263-.076H4.958a.98.98 0 00-.7.297L.13 4.717a.462.462 0 00-.09.504.47.47 0 00.177.205c.078.05.169.076.262.077z"/></g><defs><linearGradient id="fpaint0_linear_37_129" x1="2.11" y1="22.41" x2="22.028" y2="-.638" gradientUnits="userSpaceOnUse"><stop offset=".08" stop-color="#9945FF"/><stop offset=".3" stop-color="#8752F3"/><stop offset=".5" stop-color="#5497D5"/><stop offset=".6" stop-color="#43B4CA"/><stop offset=".72" stop-color="#28E0B9"/><stop offset=".97" stop-color="#19FB9B"/></linearGradient><clipPath id="fclip0_37_129"><path transform="translate(0 .109)" d="M0 0h25v21.782H0z"/></clipPath></defs></svg><svg viewBox="0 0 52 53" id="twitter" xmlns="http://www.w3.org/2000/svg"><rect y=".5" width="52" height="52" rx="10"/><rect x=".5" y="1" width="51" height="51" rx="9.5"/><path d="M31.801 17.5h3.066l-6.731 7.664L36 35.561h-6.171l-4.832-6.318-5.532 6.318H16.4l7.13-8.198L16 17.5h6.325l4.365 5.771L31.8 17.5zm-1.073 16.261h1.7L21.432 19.233h-1.826L30.727 33.76z"/></svg></svg>